<mxfile host="65bd71144e" pages="7">
    <diagram id="OSPkNP4GVnbOrpRupWqk" name="总揽">
        <mxGraphModel dx="957" dy="442" grid="1" gridSize="10" guides="1" tooltips="1" connect="1" arrows="1" fold="1" page="1" pageScale="1" pageWidth="850" pageHeight="1100" math="0" shadow="0">
            <root>
                <mxCell id="0"/>
                <mxCell id="1" parent="0"/>
                <mxCell id="R4XTTONdASvTzcWBvo0q-1" value="区块链系统" style="ellipse;whiteSpace=wrap;html=1;" parent="1" vertex="1">
                    <mxGeometry x="330" y="160" width="140" height="70" as="geometry"/>
                </mxCell>
                <mxCell id="R4XTTONdASvTzcWBvo0q-2" value="监管系统" style="ellipse;whiteSpace=wrap;html=1;" parent="1" vertex="1">
                    <mxGeometry x="330" y="290" width="140" height="70" as="geometry"/>
                </mxCell>
                <mxCell id="R4XTTONdASvTzcWBvo0q-3" value="客户系统" style="ellipse;whiteSpace=wrap;html=1;" parent="1" vertex="1">
                    <mxGeometry x="330" y="410" width="140" height="70" as="geometry"/>
                </mxCell>
                <mxCell id="R4XTTONdASvTzcWBvo0q-4" value="被监管方业务系统" style="ellipse;whiteSpace=wrap;html=1;" parent="1" vertex="1">
                    <mxGeometry x="330" y="530" width="140" height="70" as="geometry"/>
                </mxCell>
                <mxCell id="R4XTTONdASvTzcWBvo0q-5" value="电子合同管理" style="ellipse;whiteSpace=wrap;html=1;" parent="1" vertex="1">
                    <mxGeometry x="520" y="50" width="140" height="70" as="geometry"/>
                </mxCell>
                <mxCell id="R4XTTONdASvTzcWBvo0q-6" value="划拨管理" style="ellipse;whiteSpace=wrap;html=1;" parent="1" vertex="1">
                    <mxGeometry x="330" y="50" width="140" height="70" as="geometry"/>
                </mxCell>
                <mxCell id="R4XTTONdASvTzcWBvo0q-7" value="考勤管理" style="ellipse;whiteSpace=wrap;html=1;" parent="1" vertex="1">
                    <mxGeometry x="140" y="50" width="140" height="70" as="geometry"/>
                </mxCell>
                <mxCell id="R4XTTONdASvTzcWBvo0q-8" value="&amp;lt;&amp;lt;include&amp;gt;&amp;gt;" style="html=1;verticalAlign=bottom;labelBackgroundColor=none;endArrow=open;endFill=0;dashed=1;rounded=0;" parent="1" source="R4XTTONdASvTzcWBvo0q-1" target="R4XTTONdASvTzcWBvo0q-5" edge="1">
                    <mxGeometry width="160" relative="1" as="geometry">
                        <mxPoint x="500" y="220" as="sourcePoint"/>
                        <mxPoint x="660" y="220" as="targetPoint"/>
                    </mxGeometry>
                </mxCell>
                <mxCell id="R4XTTONdASvTzcWBvo0q-9" value="&amp;lt;&amp;lt;include&amp;gt;&amp;gt;" style="html=1;verticalAlign=bottom;labelBackgroundColor=none;endArrow=open;endFill=0;dashed=1;rounded=0;" parent="1" source="R4XTTONdASvTzcWBvo0q-1" target="R4XTTONdASvTzcWBvo0q-6" edge="1">
                    <mxGeometry width="160" relative="1" as="geometry">
                        <mxPoint x="459.4974746830583" y="180.25126265847086" as="sourcePoint"/>
                        <mxPoint x="580.5025253169417" y="119.74873734152914" as="targetPoint"/>
                    </mxGeometry>
                </mxCell>
                <mxCell id="R4XTTONdASvTzcWBvo0q-10" value="&amp;lt;&amp;lt;include&amp;gt;&amp;gt;" style="html=1;verticalAlign=bottom;labelBackgroundColor=none;endArrow=open;endFill=0;dashed=1;rounded=0;" parent="1" source="R4XTTONdASvTzcWBvo0q-1" target="R4XTTONdASvTzcWBvo0q-7" edge="1">
                    <mxGeometry width="160" relative="1" as="geometry">
                        <mxPoint x="410" y="170" as="sourcePoint"/>
                        <mxPoint x="410" y="130" as="targetPoint"/>
                    </mxGeometry>
                </mxCell>
                <mxCell id="R4XTTONdASvTzcWBvo0q-11" value="" style="edgeStyle=none;html=1;endSize=12;endArrow=block;endFill=0;rounded=0;" parent="1" source="R4XTTONdASvTzcWBvo0q-12" target="R4XTTONdASvTzcWBvo0q-4" edge="1">
                    <mxGeometry width="160" relative="1" as="geometry">
                        <mxPoint x="70" y="640" as="sourcePoint"/>
                        <mxPoint x="230" y="640" as="targetPoint"/>
                    </mxGeometry>
                </mxCell>
                <mxCell id="R4XTTONdASvTzcWBvo0q-12" value="教育机构系统" style="ellipse;whiteSpace=wrap;html=1;" parent="1" vertex="1">
                    <mxGeometry x="170" y="660" width="140" height="70" as="geometry"/>
                </mxCell>
                <mxCell id="R4XTTONdASvTzcWBvo0q-13" value="建筑施工系统" style="ellipse;whiteSpace=wrap;html=1;" parent="1" vertex="1">
                    <mxGeometry x="330" y="660" width="140" height="70" as="geometry"/>
                </mxCell>
                <mxCell id="R4XTTONdASvTzcWBvo0q-14" value="" style="edgeStyle=none;html=1;endSize=12;endArrow=block;endFill=0;rounded=0;" parent="1" source="R4XTTONdASvTzcWBvo0q-13" target="R4XTTONdASvTzcWBvo0q-4" edge="1">
                    <mxGeometry width="160" relative="1" as="geometry">
                        <mxPoint x="309.40864976777266" y="683.2386582508057" as="sourcePoint"/>
                        <mxPoint x="380.52220854817847" y="606.7453138711926" as="targetPoint"/>
                    </mxGeometry>
                </mxCell>
                <mxCell id="R4XTTONdASvTzcWBvo0q-15" value="养老院系统" style="ellipse;whiteSpace=wrap;html=1;" parent="1" vertex="1">
                    <mxGeometry x="490" y="660" width="140" height="70" as="geometry"/>
                </mxCell>
                <mxCell id="R4XTTONdASvTzcWBvo0q-16" value="" style="edgeStyle=none;html=1;endSize=12;endArrow=block;endFill=0;rounded=0;" parent="1" source="R4XTTONdASvTzcWBvo0q-15" target="R4XTTONdASvTzcWBvo0q-4" edge="1">
                    <mxGeometry width="160" relative="1" as="geometry">
                        <mxPoint x="410" y="680" as="sourcePoint"/>
                        <mxPoint x="410" y="610" as="targetPoint"/>
                    </mxGeometry>
                </mxCell>
                <mxCell id="R4XTTONdASvTzcWBvo0q-17" value="客户" style="shape=umlActor;verticalLabelPosition=bottom;verticalAlign=top;html=1;" parent="1" vertex="1">
                    <mxGeometry x="90" y="165" width="30" height="60" as="geometry"/>
                </mxCell>
                <mxCell id="R4XTTONdASvTzcWBvo0q-18" value="被监管方" style="shape=umlActor;verticalLabelPosition=bottom;verticalAlign=top;html=1;" parent="1" vertex="1">
                    <mxGeometry x="90" y="535" width="30" height="60" as="geometry"/>
                </mxCell>
                <mxCell id="R4XTTONdASvTzcWBvo0q-19" value="监管方" style="shape=umlActor;verticalLabelPosition=bottom;verticalAlign=top;html=1;" parent="1" vertex="1">
                    <mxGeometry x="720" y="295" width="30" height="60" as="geometry"/>
                </mxCell>
                <mxCell id="R4XTTONdASvTzcWBvo0q-20" value="银行" style="shape=umlActor;verticalLabelPosition=bottom;verticalAlign=top;html=1;" parent="1" vertex="1">
                    <mxGeometry x="720" y="165" width="30" height="60" as="geometry"/>
                </mxCell>
                <mxCell id="R4XTTONdASvTzcWBvo0q-21" value="" style="html=1;endArrow=none;elbow=vertical;rounded=0;" parent="1" source="R4XTTONdASvTzcWBvo0q-17" target="R4XTTONdASvTzcWBvo0q-3" edge="1">
                    <mxGeometry width="160" relative="1" as="geometry">
                        <mxPoint x="340" y="550" as="sourcePoint"/>
                        <mxPoint x="500" y="550" as="targetPoint"/>
                    </mxGeometry>
                </mxCell>
                <mxCell id="R4XTTONdASvTzcWBvo0q-22" value="" style="html=1;endArrow=none;elbow=vertical;rounded=0;" parent="1" source="R4XTTONdASvTzcWBvo0q-18" target="R4XTTONdASvTzcWBvo0q-1" edge="1">
                    <mxGeometry width="160" relative="1" as="geometry">
                        <mxPoint x="130" y="410" as="sourcePoint"/>
                        <mxPoint x="340.71796769724483" y="410" as="targetPoint"/>
                    </mxGeometry>
                </mxCell>
                <mxCell id="R4XTTONdASvTzcWBvo0q-23" value="" style="html=1;endArrow=none;elbow=vertical;rounded=0;" parent="1" source="R4XTTONdASvTzcWBvo0q-17" target="R4XTTONdASvTzcWBvo0q-1" edge="1">
                    <mxGeometry width="160" relative="1" as="geometry">
                        <mxPoint x="130" y="399.57627118644064" as="sourcePoint"/>
                        <mxPoint x="369.11692560874917" y="233.41027203459805" as="targetPoint"/>
                    </mxGeometry>
                </mxCell>
                <mxCell id="R4XTTONdASvTzcWBvo0q-24" value="" style="html=1;endArrow=none;elbow=vertical;rounded=0;" parent="1" source="R4XTTONdASvTzcWBvo0q-1" target="R4XTTONdASvTzcWBvo0q-19" edge="1">
                    <mxGeometry width="160" relative="1" as="geometry">
                        <mxPoint x="130" y="205" as="sourcePoint"/>
                        <mxPoint x="340" y="205" as="targetPoint"/>
                    </mxGeometry>
                </mxCell>
                <mxCell id="R4XTTONdASvTzcWBvo0q-25" value="" style="html=1;endArrow=none;elbow=vertical;rounded=0;" parent="1" source="R4XTTONdASvTzcWBvo0q-1" target="R4XTTONdASvTzcWBvo0q-20" edge="1">
                    <mxGeometry width="160" relative="1" as="geometry">
                        <mxPoint x="480" y="205" as="sourcePoint"/>
                        <mxPoint x="690" y="205" as="targetPoint"/>
                    </mxGeometry>
                </mxCell>
                <mxCell id="R4XTTONdASvTzcWBvo0q-27" value="" style="html=1;endArrow=none;elbow=vertical;rounded=0;" parent="1" source="R4XTTONdASvTzcWBvo0q-2" target="R4XTTONdASvTzcWBvo0q-19" edge="1">
                    <mxGeometry width="160" relative="1" as="geometry">
                        <mxPoint x="480" y="365" as="sourcePoint"/>
                        <mxPoint x="700" y="365" as="targetPoint"/>
                    </mxGeometry>
                </mxCell>
                <mxCell id="R4XTTONdASvTzcWBvo0q-34" value="" style="html=1;endArrow=none;elbow=vertical;rounded=0;" parent="1" source="R4XTTONdASvTzcWBvo0q-18" target="R4XTTONdASvTzcWBvo0q-4" edge="1">
                    <mxGeometry width="160" relative="1" as="geometry">
                        <mxPoint x="130" y="556.1864406779662" as="sourcePoint"/>
                        <mxPoint x="384.07842010763056" y="237.51181206839556" as="targetPoint"/>
                    </mxGeometry>
                </mxCell>
                <mxCell id="njr_DXc1jy3e9W3UBCGl-1" value="少年宫系统" style="ellipse;whiteSpace=wrap;html=1;" parent="1" vertex="1">
                    <mxGeometry x="560" y="530" width="140" height="70" as="geometry"/>
                </mxCell>
                <mxCell id="njr_DXc1jy3e9W3UBCGl-2" value="" style="edgeStyle=none;html=1;endSize=12;endArrow=block;endFill=0;rounded=0;" parent="1" source="njr_DXc1jy3e9W3UBCGl-1" target="R4XTTONdASvTzcWBvo0q-4" edge="1">
                    <mxGeometry width="160" relative="1" as="geometry">
                        <mxPoint x="535.1803169009015" y="684.6372363375863" as="sourcePoint"/>
                        <mxPoint x="444.72972568497835" y="605.3885099743561" as="targetPoint"/>
                    </mxGeometry>
                </mxCell>
            </root>
        </mxGraphModel>
    </diagram>
    <diagram id="-jE7WhiuC0so5sAjj2Qw" name="监管平台边界">
        <mxGraphModel dx="957" dy="442" grid="1" gridSize="10" guides="1" tooltips="1" connect="1" arrows="1" fold="1" page="1" pageScale="1" pageWidth="850" pageHeight="1100" math="0" shadow="0">
            <root>
                <mxCell id="0"/>
                <mxCell id="1" parent="0"/>
                <mxCell id="7owOzgz8R8jBUmcM2rsw-10" value="监管平台" style="shape=umlFrame;whiteSpace=wrap;html=1;width=120;height=30;boundedLbl=1;verticalAlign=middle;align=left;spacingLeft=5;movable=0;resizable=0;rotatable=0;deletable=0;editable=0;connectable=0;" parent="1" vertex="1">
                    <mxGeometry x="180" y="110" width="420" height="470" as="geometry"/>
                </mxCell>
                <mxCell id="1ohIoNOTV_pqMyMzxA3E-1" value="具体业务相关系统" style="shape=umlFrame;whiteSpace=wrap;html=1;width=120;height=30;boundedLbl=1;verticalAlign=middle;align=left;spacingLeft=5;movable=0;resizable=0;rotatable=0;deletable=0;editable=0;connectable=0;" parent="1" vertex="1">
                    <mxGeometry x="200" y="150" width="200" height="360" as="geometry"/>
                </mxCell>
                <mxCell id="vsFFL-zdQXagqHEKDQa--1" value="被监管方业务WEB系统" style="ellipse;whiteSpace=wrap;html=1;movable=1;resizable=1;rotatable=1;deletable=1;editable=1;connectable=1;" parent="1" vertex="1">
                    <mxGeometry x="220" y="310" width="140" height="70" as="geometry"/>
                </mxCell>
                <mxCell id="vsFFL-zdQXagqHEKDQa--2" value="客户WEB系统" style="ellipse;whiteSpace=wrap;html=1;movable=1;resizable=1;rotatable=1;deletable=1;editable=1;connectable=1;" parent="1" vertex="1">
                    <mxGeometry x="220" y="190" width="140" height="70" as="geometry"/>
                </mxCell>
                <mxCell id="7owOzgz8R8jBUmcM2rsw-1" value="资金管理系统" style="ellipse;whiteSpace=wrap;html=1;movable=1;resizable=1;rotatable=1;deletable=1;editable=1;connectable=1;" parent="1" vertex="1">
                    <mxGeometry x="425" y="310" width="140" height="70" as="geometry"/>
                </mxCell>
                <mxCell id="7owOzgz8R8jBUmcM2rsw-3" value="支付系统" style="ellipse;whiteSpace=wrap;html=1;movable=1;resizable=1;rotatable=1;deletable=1;editable=1;connectable=1;" parent="1" vertex="1">
                    <mxGeometry x="425" y="190" width="140" height="70" as="geometry"/>
                </mxCell>
                <mxCell id="7owOzgz8R8jBUmcM2rsw-4" value="中银资管" style="ellipse;whiteSpace=wrap;html=1;" parent="1" vertex="1">
                    <mxGeometry x="660" y="310" width="140" height="70" as="geometry"/>
                </mxCell>
                <mxCell id="7owOzgz8R8jBUmcM2rsw-5" value="中行" style="ellipse;whiteSpace=wrap;html=1;" parent="1" vertex="1">
                    <mxGeometry x="660" y="190" width="140" height="70" as="geometry"/>
                </mxCell>
                <mxCell id="7owOzgz8R8jBUmcM2rsw-7" value="监管WEB系统" style="ellipse;whiteSpace=wrap;html=1;movable=1;resizable=1;rotatable=1;deletable=1;editable=1;connectable=1;" parent="1" vertex="1">
                    <mxGeometry x="220" y="420" width="140" height="70" as="geometry"/>
                </mxCell>
                <mxCell id="7owOzgz8R8jBUmcM2rsw-9" value="区块链智能合约系统" style="ellipse;whiteSpace=wrap;html=1;movable=1;resizable=1;rotatable=1;deletable=1;editable=1;connectable=1;" parent="1" vertex="1">
                    <mxGeometry x="425" y="420" width="140" height="70" as="geometry"/>
                </mxCell>
                <mxCell id="7owOzgz8R8jBUmcM2rsw-16" style="edgeStyle=none;rounded=0;orthogonalLoop=1;jettySize=auto;html=1;endArrow=none;endFill=0;movable=1;resizable=1;rotatable=1;deletable=1;editable=1;connectable=1;" parent="1" source="7owOzgz8R8jBUmcM2rsw-4" target="7owOzgz8R8jBUmcM2rsw-1" edge="1">
                    <mxGeometry relative="1" as="geometry">
                        <mxPoint x="244.0872572628814" y="486.0580459659277" as="sourcePoint"/>
                        <mxPoint x="145.6802204022772" y="523.7884874657993" as="targetPoint"/>
                    </mxGeometry>
                </mxCell>
                <mxCell id="7owOzgz8R8jBUmcM2rsw-17" style="edgeStyle=none;rounded=0;orthogonalLoop=1;jettySize=auto;html=1;endArrow=none;endFill=0;movable=1;resizable=1;rotatable=1;deletable=1;editable=1;connectable=1;" parent="1" source="7owOzgz8R8jBUmcM2rsw-5" target="7owOzgz8R8jBUmcM2rsw-3" edge="1">
                    <mxGeometry relative="1" as="geometry">
                        <mxPoint x="670" y="355" as="sourcePoint"/>
                        <mxPoint x="575" y="355" as="targetPoint"/>
                    </mxGeometry>
                </mxCell>
                <mxCell id="aFDHBBBuEbRiBre2tBGC-1" value="客户" style="shape=umlActor;verticalLabelPosition=bottom;verticalAlign=top;html=1;" parent="1" vertex="1">
                    <mxGeometry x="70" y="195" width="30" height="60" as="geometry"/>
                </mxCell>
                <mxCell id="aFDHBBBuEbRiBre2tBGC-2" value="被监管方" style="shape=umlActor;verticalLabelPosition=bottom;verticalAlign=top;html=1;" parent="1" vertex="1">
                    <mxGeometry x="70" y="315" width="30" height="60" as="geometry"/>
                </mxCell>
                <mxCell id="aFDHBBBuEbRiBre2tBGC-3" value="监管方" style="shape=umlActor;verticalLabelPosition=bottom;verticalAlign=top;html=1;" parent="1" vertex="1">
                    <mxGeometry x="70" y="425" width="30" height="60" as="geometry"/>
                </mxCell>
                <mxCell id="aFDHBBBuEbRiBre2tBGC-4" style="edgeStyle=none;rounded=0;orthogonalLoop=1;jettySize=auto;html=1;endArrow=none;endFill=0;movable=1;resizable=1;rotatable=1;deletable=1;editable=1;connectable=1;" parent="1" source="aFDHBBBuEbRiBre2tBGC-3" target="7owOzgz8R8jBUmcM2rsw-7" edge="1">
                    <mxGeometry relative="1" as="geometry">
                        <mxPoint x="670" y="355" as="sourcePoint"/>
                        <mxPoint x="575" y="355" as="targetPoint"/>
                    </mxGeometry>
                </mxCell>
                <mxCell id="aFDHBBBuEbRiBre2tBGC-5" style="edgeStyle=none;rounded=0;orthogonalLoop=1;jettySize=auto;html=1;endArrow=none;endFill=0;movable=1;resizable=1;rotatable=1;deletable=1;editable=1;connectable=1;" parent="1" source="aFDHBBBuEbRiBre2tBGC-2" target="vsFFL-zdQXagqHEKDQa--1" edge="1">
                    <mxGeometry relative="1" as="geometry">
                        <mxPoint x="110" y="465" as="sourcePoint"/>
                        <mxPoint x="230" y="465" as="targetPoint"/>
                    </mxGeometry>
                </mxCell>
                <mxCell id="aFDHBBBuEbRiBre2tBGC-6" style="edgeStyle=none;rounded=0;orthogonalLoop=1;jettySize=auto;html=1;endArrow=none;endFill=0;movable=1;resizable=1;rotatable=1;deletable=1;editable=1;connectable=1;" parent="1" source="aFDHBBBuEbRiBre2tBGC-1" target="vsFFL-zdQXagqHEKDQa--2" edge="1">
                    <mxGeometry relative="1" as="geometry">
                        <mxPoint x="120" y="475" as="sourcePoint"/>
                        <mxPoint x="240" y="475" as="targetPoint"/>
                    </mxGeometry>
                </mxCell>
            </root>
        </mxGraphModel>
    </diagram>
    <diagram id="NMNYENdy8KDR8TgnQ3xS" name="区块链系统">
        <mxGraphModel dx="957" dy="442" grid="1" gridSize="10" guides="1" tooltips="1" connect="1" arrows="1" fold="1" page="1" pageScale="1" pageWidth="850" pageHeight="1100" math="0" shadow="0">
            <root>
                <mxCell id="0"/>
                <mxCell id="1" parent="0"/>
                <mxCell id="rqk_2w9tCMrrV3Js0AVm-1" value="链玛直接相关方" style="shape=umlActor;verticalLabelPosition=bottom;verticalAlign=top;html=1;" parent="1" vertex="1">
                    <mxGeometry x="112" y="241" width="30" height="60" as="geometry"/>
                </mxCell>
                <mxCell id="rqk_2w9tCMrrV3Js0AVm-2" value="被监管方" style="shape=umlActor;verticalLabelPosition=bottom;verticalAlign=top;html=1;" parent="1" vertex="1">
                    <mxGeometry x="50" y="380" width="30" height="60" as="geometry"/>
                </mxCell>
                <mxCell id="rqk_2w9tCMrrV3Js0AVm-3" value="客户" style="shape=umlActor;verticalLabelPosition=bottom;verticalAlign=top;html=1;" parent="1" vertex="1">
                    <mxGeometry x="120" y="380" width="30" height="60" as="geometry"/>
                </mxCell>
                <mxCell id="rqk_2w9tCMrrV3Js0AVm-4" value="电子合同" style="ellipse;whiteSpace=wrap;html=1;" parent="1" vertex="1">
                    <mxGeometry x="342" y="236" width="140" height="70" as="geometry"/>
                </mxCell>
                <mxCell id="rqk_2w9tCMrrV3Js0AVm-5" value="划拨合约" style="ellipse;whiteSpace=wrap;html=1;" parent="1" vertex="1">
                    <mxGeometry x="342" y="430" width="140" height="70" as="geometry"/>
                </mxCell>
                <mxCell id="rqk_2w9tCMrrV3Js0AVm-6" value="签约" style="ellipse;whiteSpace=wrap;html=1;" parent="1" vertex="1">
                    <mxGeometry x="182" y="131" width="140" height="70" as="geometry"/>
                </mxCell>
                <mxCell id="rqk_2w9tCMrrV3Js0AVm-7" value="完成" style="ellipse;whiteSpace=wrap;html=1;" parent="1" vertex="1">
                    <mxGeometry x="425" y="30" width="140" height="70" as="geometry"/>
                </mxCell>
                <mxCell id="rqk_2w9tCMrrV3Js0AVm-8" value="终止" style="ellipse;whiteSpace=wrap;html=1;" parent="1" vertex="1">
                    <mxGeometry x="500" y="131" width="140" height="70" as="geometry"/>
                </mxCell>
                <mxCell id="rqk_2w9tCMrrV3Js0AVm-12" value="&amp;lt;&amp;lt;include&amp;gt;&amp;gt;" style="html=1;verticalAlign=bottom;labelBackgroundColor=none;endArrow=open;endFill=0;dashed=1;rounded=0;" parent="1" source="rqk_2w9tCMrrV3Js0AVm-4" target="rqk_2w9tCMrrV3Js0AVm-8" edge="1">
                    <mxGeometry width="160" relative="1" as="geometry">
                        <mxPoint x="350" y="170" as="sourcePoint"/>
                        <mxPoint x="510" y="170" as="targetPoint"/>
                    </mxGeometry>
                </mxCell>
                <mxCell id="rqk_2w9tCMrrV3Js0AVm-14" value="&amp;lt;&amp;lt;include&amp;gt;&amp;gt;" style="html=1;verticalAlign=bottom;labelBackgroundColor=none;endArrow=open;endFill=0;dashed=1;rounded=0;" parent="1" source="rqk_2w9tCMrrV3Js0AVm-4" target="rqk_2w9tCMrrV3Js0AVm-7" edge="1">
                    <mxGeometry width="160" relative="1" as="geometry">
                        <mxPoint x="448.9774937525433" y="257.0450124949134" as="sourcePoint"/>
                        <mxPoint x="523.0225062474567" y="108.95498750508659" as="targetPoint"/>
                    </mxGeometry>
                </mxCell>
                <mxCell id="rqk_2w9tCMrrV3Js0AVm-15" value="&amp;lt;&amp;lt;include&amp;gt;&amp;gt;" style="html=1;verticalAlign=bottom;labelBackgroundColor=none;endArrow=open;endFill=0;dashed=1;rounded=0;" parent="1" source="rqk_2w9tCMrrV3Js0AVm-4" target="rqk_2w9tCMrrV3Js0AVm-6" edge="1">
                    <mxGeometry width="160" relative="1" as="geometry">
                        <mxPoint x="407.43631485508604" y="246.76588297104672" as="sourcePoint"/>
                        <mxPoint x="344.5804386257398" y="99.23233416478024" as="targetPoint"/>
                    </mxGeometry>
                </mxCell>
                <mxCell id="rqk_2w9tCMrrV3Js0AVm-19" value="" style="html=1;endArrow=none;elbow=vertical;rounded=0;" parent="1" source="rqk_2w9tCMrrV3Js0AVm-1" target="rqk_2w9tCMrrV3Js0AVm-4" edge="1">
                    <mxGeometry width="160" relative="1" as="geometry">
                        <mxPoint x="190" y="340" as="sourcePoint"/>
                        <mxPoint x="350" y="340" as="targetPoint"/>
                    </mxGeometry>
                </mxCell>
                <mxCell id="rqk_2w9tCMrrV3Js0AVm-21" value="执行" style="ellipse;whiteSpace=wrap;html=1;" parent="1" vertex="1">
                    <mxGeometry x="342" y="320" width="140" height="70" as="geometry"/>
                </mxCell>
                <mxCell id="rqk_2w9tCMrrV3Js0AVm-22" value="暂停" style="ellipse;whiteSpace=wrap;html=1;" parent="1" vertex="1">
                    <mxGeometry x="520" y="340" width="140" height="70" as="geometry"/>
                </mxCell>
                <mxCell id="rqk_2w9tCMrrV3Js0AVm-23" value="完成" style="ellipse;whiteSpace=wrap;html=1;" parent="1" vertex="1">
                    <mxGeometry x="520" y="430" width="140" height="70" as="geometry"/>
                </mxCell>
                <mxCell id="rqk_2w9tCMrrV3Js0AVm-24" value="" style="html=1;endArrow=none;elbow=vertical;rounded=0;" parent="1" source="rqk_2w9tCMrrV3Js0AVm-1" target="rqk_2w9tCMrrV3Js0AVm-5" edge="1">
                    <mxGeometry width="160" relative="1" as="geometry">
                        <mxPoint x="152" y="281" as="sourcePoint"/>
                        <mxPoint x="352" y="281" as="targetPoint"/>
                    </mxGeometry>
                </mxCell>
                <mxCell id="rqk_2w9tCMrrV3Js0AVm-26" value="&amp;lt;&amp;lt;include&amp;gt;&amp;gt;" style="html=1;verticalAlign=bottom;labelBackgroundColor=none;endArrow=open;endFill=0;dashed=1;rounded=0;" parent="1" source="rqk_2w9tCMrrV3Js0AVm-5" target="rqk_2w9tCMrrV3Js0AVm-21" edge="1">
                    <mxGeometry width="160" relative="1" as="geometry">
                        <mxPoint x="379.653348753312" y="253.13083635901728" as="sourcePoint"/>
                        <mxPoint x="304.42302506839997" y="203.84011020113746" as="targetPoint"/>
                    </mxGeometry>
                </mxCell>
                <mxCell id="rqk_2w9tCMrrV3Js0AVm-27" value="&amp;lt;&amp;lt;include&amp;gt;&amp;gt;" style="html=1;verticalAlign=bottom;labelBackgroundColor=none;endArrow=open;endFill=0;dashed=1;rounded=0;" parent="1" source="rqk_2w9tCMrrV3Js0AVm-5" target="rqk_2w9tCMrrV3Js0AVm-22" edge="1">
                    <mxGeometry width="160" relative="1" as="geometry">
                        <mxPoint x="390.05783466826074" y="476.1436111984458" as="sourcePoint"/>
                        <mxPoint x="341.75781284688946" y="523.8092909539482" as="targetPoint"/>
                    </mxGeometry>
                </mxCell>
                <mxCell id="rqk_2w9tCMrrV3Js0AVm-28" value="&amp;lt;&amp;lt;include&amp;gt;&amp;gt;" style="html=1;verticalAlign=bottom;labelBackgroundColor=none;endArrow=open;endFill=0;dashed=1;rounded=0;" parent="1" source="rqk_2w9tCMrrV3Js0AVm-5" target="rqk_2w9tCMrrV3Js0AVm-23" edge="1">
                    <mxGeometry width="160" relative="1" as="geometry">
                        <mxPoint x="452.9826403753143" y="476.38501232824046" as="sourcePoint"/>
                        <mxPoint x="499.15287665524124" y="523.5816336303383" as="targetPoint"/>
                    </mxGeometry>
                </mxCell>
                <mxCell id="XDAJFkiUghG3ELTBjw-P-1" value="考勤合约" style="ellipse;whiteSpace=wrap;html=1;" parent="1" vertex="1">
                    <mxGeometry x="310" y="580" width="140" height="70" as="geometry"/>
                </mxCell>
                <mxCell id="K7PmQ_XCyhTyFSxWHYcu-1" value="创建" style="ellipse;whiteSpace=wrap;html=1;" parent="1" vertex="1">
                    <mxGeometry x="310" y="700" width="140" height="70" as="geometry"/>
                </mxCell>
                <mxCell id="K7PmQ_XCyhTyFSxWHYcu-2" value="更新" style="ellipse;whiteSpace=wrap;html=1;" parent="1" vertex="1">
                    <mxGeometry x="115" y="690" width="140" height="70" as="geometry"/>
                </mxCell>
                <mxCell id="K7PmQ_XCyhTyFSxWHYcu-3" value="完成" style="ellipse;whiteSpace=wrap;html=1;" parent="1" vertex="1">
                    <mxGeometry x="120" y="580" width="140" height="70" as="geometry"/>
                </mxCell>
                <mxCell id="K7PmQ_XCyhTyFSxWHYcu-4" value="&amp;lt;&amp;lt;include&amp;gt;&amp;gt;" style="html=1;verticalAlign=bottom;labelBackgroundColor=none;endArrow=open;endFill=0;dashed=1;rounded=0;" parent="1" source="XDAJFkiUghG3ELTBjw-P-1" target="K7PmQ_XCyhTyFSxWHYcu-1" edge="1">
                    <mxGeometry width="160" relative="1" as="geometry">
                        <mxPoint x="377.0320830741689" y="451.82296799084656" as="sourcePoint"/>
                        <mxPoint x="567.5051860463682" y="544.2329597823405" as="targetPoint"/>
                    </mxGeometry>
                </mxCell>
                <mxCell id="K7PmQ_XCyhTyFSxWHYcu-5" value="&amp;lt;&amp;lt;include&amp;gt;&amp;gt;" style="html=1;verticalAlign=bottom;labelBackgroundColor=none;endArrow=open;endFill=0;dashed=1;rounded=0;" parent="1" source="XDAJFkiUghG3ELTBjw-P-1" target="K7PmQ_XCyhTyFSxWHYcu-2" edge="1">
                    <mxGeometry width="160" relative="1" as="geometry">
                        <mxPoint x="387.0320830741689" y="461.82296799084656" as="sourcePoint"/>
                        <mxPoint x="513.2845413953096" y="627.6492493458827" as="targetPoint"/>
                    </mxGeometry>
                </mxCell>
                <mxCell id="K7PmQ_XCyhTyFSxWHYcu-6" value="&amp;lt;&amp;lt;include&amp;gt;&amp;gt;" style="html=1;verticalAlign=bottom;labelBackgroundColor=none;endArrow=open;endFill=0;dashed=1;rounded=0;" parent="1" source="XDAJFkiUghG3ELTBjw-P-1" target="K7PmQ_XCyhTyFSxWHYcu-3" edge="1">
                    <mxGeometry width="160" relative="1" as="geometry">
                        <mxPoint x="397.0320830741689" y="471.82296799084656" as="sourcePoint"/>
                        <mxPoint x="327.0895022047946" y="513.2281080659031" as="targetPoint"/>
                    </mxGeometry>
                </mxCell>
                <mxCell id="K7PmQ_XCyhTyFSxWHYcu-9" value="" style="html=1;endArrow=none;elbow=vertical;rounded=0;" parent="1" source="rqk_2w9tCMrrV3Js0AVm-1" target="XDAJFkiUghG3ELTBjw-P-1" edge="1">
                    <mxGeometry width="160" relative="1" as="geometry">
                        <mxPoint x="152" y="289.8947368421052" as="sourcePoint"/>
                        <mxPoint x="376.8763777970489" y="423.24248367614473" as="targetPoint"/>
                    </mxGeometry>
                </mxCell>
                <mxCell id="K7PmQ_XCyhTyFSxWHYcu-10" value="监管方" style="shape=umlActor;verticalLabelPosition=bottom;verticalAlign=top;html=1;" parent="1" vertex="1">
                    <mxGeometry x="770" y="450" width="30" height="60" as="geometry"/>
                </mxCell>
                <mxCell id="JJTzrpcgHC_Raxee-sOC-2" value="" style="edgeStyle=none;html=1;endSize=12;endArrow=block;endFill=0;rounded=0;" parent="1" source="rqk_2w9tCMrrV3Js0AVm-2" target="rqk_2w9tCMrrV3Js0AVm-1" edge="1">
                    <mxGeometry width="160" relative="1" as="geometry">
                        <mxPoint x="86.00591715976338" y="420" as="sourcePoint"/>
                        <mxPoint x="125.99408284023662" y="311" as="targetPoint"/>
                    </mxGeometry>
                </mxCell>
                <mxCell id="JJTzrpcgHC_Raxee-sOC-3" value="" style="edgeStyle=none;html=1;endSize=12;endArrow=block;endFill=0;rounded=0;" parent="1" source="rqk_2w9tCMrrV3Js0AVm-3" target="rqk_2w9tCMrrV3Js0AVm-1" edge="1">
                    <mxGeometry width="160" relative="1" as="geometry">
                        <mxPoint x="137" y="420" as="sourcePoint"/>
                        <mxPoint x="170" y="340" as="targetPoint"/>
                    </mxGeometry>
                </mxCell>
                <mxCell id="JJTzrpcgHC_Raxee-sOC-4" value="查看" style="ellipse;whiteSpace=wrap;html=1;" parent="1" vertex="1">
                    <mxGeometry x="570" y="236" width="140" height="70" as="geometry"/>
                </mxCell>
                <mxCell id="JJTzrpcgHC_Raxee-sOC-5" value="查看" style="ellipse;whiteSpace=wrap;html=1;" parent="1" vertex="1">
                    <mxGeometry x="520" y="530" width="140" height="70" as="geometry"/>
                </mxCell>
                <mxCell id="JJTzrpcgHC_Raxee-sOC-6" value="查看" style="ellipse;whiteSpace=wrap;html=1;" parent="1" vertex="1">
                    <mxGeometry x="520" y="680" width="140" height="70" as="geometry"/>
                </mxCell>
                <mxCell id="JJTzrpcgHC_Raxee-sOC-7" value="&amp;lt;&amp;lt;include&amp;gt;&amp;gt;" style="html=1;verticalAlign=bottom;labelBackgroundColor=none;endArrow=open;endFill=0;dashed=1;rounded=0;" parent="1" source="rqk_2w9tCMrrV3Js0AVm-4" target="JJTzrpcgHC_Raxee-sOC-4" edge="1">
                    <mxGeometry width="160" relative="1" as="geometry">
                        <mxPoint x="463.88336403109315" y="252.95635625744217" as="sourcePoint"/>
                        <mxPoint x="537.9148128284364" y="203.96800413300116" as="targetPoint"/>
                    </mxGeometry>
                </mxCell>
                <mxCell id="JJTzrpcgHC_Raxee-sOC-8" value="&amp;lt;&amp;lt;include&amp;gt;&amp;gt;" style="html=1;verticalAlign=bottom;labelBackgroundColor=none;endArrow=open;endFill=0;dashed=1;rounded=0;" parent="1" source="rqk_2w9tCMrrV3Js0AVm-5" target="JJTzrpcgHC_Raxee-sOC-5" edge="1">
                    <mxGeometry width="160" relative="1" as="geometry">
                        <mxPoint x="483.3018972119935" y="471.89731782125455" as="sourcePoint"/>
                        <mxPoint x="578.6767684732044" y="498.12204636877186" as="targetPoint"/>
                    </mxGeometry>
                </mxCell>
                <mxCell id="JJTzrpcgHC_Raxee-sOC-9" value="&amp;lt;&amp;lt;include&amp;gt;&amp;gt;" style="html=1;verticalAlign=bottom;labelBackgroundColor=none;endArrow=open;endFill=0;dashed=1;rounded=0;" parent="1" source="XDAJFkiUghG3ELTBjw-P-1" target="JJTzrpcgHC_Raxee-sOC-6" edge="1">
                    <mxGeometry width="160" relative="1" as="geometry">
                        <mxPoint x="461.33751892916644" y="483.95064595348776" as="sourcePoint"/>
                        <mxPoint x="600.5888640051489" y="586.0743956001095" as="targetPoint"/>
                    </mxGeometry>
                </mxCell>
                <mxCell id="JJTzrpcgHC_Raxee-sOC-10" value="" style="html=1;endArrow=none;elbow=vertical;rounded=0;" parent="1" source="K7PmQ_XCyhTyFSxWHYcu-10" target="JJTzrpcgHC_Raxee-sOC-6" edge="1">
                    <mxGeometry width="160" relative="1" as="geometry">
                        <mxPoint x="152" y="301.395256916996" as="sourcePoint"/>
                        <mxPoint x="365.8404565929436" y="592.1506603477178" as="targetPoint"/>
                    </mxGeometry>
                </mxCell>
                <mxCell id="JJTzrpcgHC_Raxee-sOC-11" value="" style="html=1;endArrow=none;elbow=vertical;rounded=0;" parent="1" source="K7PmQ_XCyhTyFSxWHYcu-10" target="JJTzrpcgHC_Raxee-sOC-5" edge="1">
                    <mxGeometry width="160" relative="1" as="geometry">
                        <mxPoint x="780" y="512.2727272727273" as="sourcePoint"/>
                        <mxPoint x="652.3389212162044" y="701.8300866789691" as="targetPoint"/>
                    </mxGeometry>
                </mxCell>
                <mxCell id="JJTzrpcgHC_Raxee-sOC-12" value="" style="html=1;endArrow=none;elbow=vertical;rounded=0;" parent="1" source="K7PmQ_XCyhTyFSxWHYcu-10" target="JJTzrpcgHC_Raxee-sOC-4" edge="1">
                    <mxGeometry width="160" relative="1" as="geometry">
                        <mxPoint x="780" y="502.0967741935483" as="sourcePoint"/>
                        <mxPoint x="676.8857768203159" y="585.2534057900677" as="targetPoint"/>
                    </mxGeometry>
                </mxCell>
                <mxCell id="TizxyIA6RUPfKqHDaQq8-1" value="银行" style="shape=umlActor;verticalLabelPosition=bottom;verticalAlign=top;html=1;" parent="1" vertex="1">
                    <mxGeometry x="790" y="280" width="30" height="60" as="geometry"/>
                </mxCell>
                <mxCell id="TizxyIA6RUPfKqHDaQq8-2" value="" style="html=1;endArrow=none;elbow=vertical;rounded=0;" parent="1" source="TizxyIA6RUPfKqHDaQq8-1" target="rqk_2w9tCMrrV3Js0AVm-21" edge="1">
                    <mxGeometry width="160" relative="1" as="geometry">
                        <mxPoint x="780" y="465.6896551724137" as="sourcePoint"/>
                        <mxPoint x="670.6360070412709" y="288.4445631358526" as="targetPoint"/>
                    </mxGeometry>
                </mxCell>
                <mxCell id="TizxyIA6RUPfKqHDaQq8-3" value="" style="html=1;endArrow=none;elbow=vertical;rounded=0;" parent="1" source="TizxyIA6RUPfKqHDaQq8-1" target="JJTzrpcgHC_Raxee-sOC-4" edge="1">
                    <mxGeometry width="160" relative="1" as="geometry">
                        <mxPoint x="780" y="312.21179624664876" as="sourcePoint"/>
                        <mxPoint x="489.1412359582084" y="355.09981775415145" as="targetPoint"/>
                    </mxGeometry>
                </mxCell>
                <mxCell id="TizxyIA6RUPfKqHDaQq8-4" value="" style="html=1;endArrow=none;elbow=vertical;rounded=0;" parent="1" source="TizxyIA6RUPfKqHDaQq8-1" target="JJTzrpcgHC_Raxee-sOC-6" edge="1">
                    <mxGeometry width="160" relative="1" as="geometry">
                        <mxPoint x="780" y="304.31034482758616" as="sourcePoint"/>
                        <mxPoint x="705.7683889631701" y="276.153526848099" as="targetPoint"/>
                    </mxGeometry>
                </mxCell>
                <mxCell id="TizxyIA6RUPfKqHDaQq8-5" value="" style="html=1;endArrow=none;elbow=vertical;rounded=0;" parent="1" source="TizxyIA6RUPfKqHDaQq8-1" target="JJTzrpcgHC_Raxee-sOC-5" edge="1">
                    <mxGeometry width="160" relative="1" as="geometry">
                        <mxPoint x="790" y="314.31034482758616" as="sourcePoint"/>
                        <mxPoint x="715.7683889631701" y="286.153526848099" as="targetPoint"/>
                    </mxGeometry>
                </mxCell>
                <mxCell id="Es7PX_CfxpxBdncUtvXs-1" value="更新" style="ellipse;whiteSpace=wrap;html=1;" parent="1" vertex="1">
                    <mxGeometry x="255" y="30" width="140" height="70" as="geometry"/>
                </mxCell>
                <mxCell id="Es7PX_CfxpxBdncUtvXs-2" value="&amp;lt;&amp;lt;include&amp;gt;&amp;gt;" style="html=1;verticalAlign=bottom;labelBackgroundColor=none;endArrow=open;endFill=0;dashed=1;rounded=0;" parent="1" source="rqk_2w9tCMrrV3Js0AVm-4" target="Es7PX_CfxpxBdncUtvXs-1" edge="1">
                    <mxGeometry width="160" relative="1" as="geometry">
                        <mxPoint x="439.7176115416037" y="247.1396757204907" as="sourcePoint"/>
                        <mxPoint x="512.2501953431654" y="108.85610888248084" as="targetPoint"/>
                    </mxGeometry>
                </mxCell>
            </root>
        </mxGraphModel>
    </diagram>
    <diagram id="qJClWFKMpRB7bd8r2v9s" name="客户选课系统">
        <mxGraphModel dx="957" dy="442" grid="1" gridSize="10" guides="1" tooltips="1" connect="1" arrows="1" fold="1" page="1" pageScale="1" pageWidth="850" pageHeight="1100" math="0" shadow="0">
            <root>
                <mxCell id="0"/>
                <mxCell id="1" parent="0"/>
                <mxCell id="aLqa0dnTBbfsLoQ9mA7w-1" value="客户" style="shape=umlActor;verticalLabelPosition=bottom;verticalAlign=top;html=1;" parent="1" vertex="1">
                    <mxGeometry x="340" y="170" width="30" height="60" as="geometry"/>
                </mxCell>
                <mxCell id="aLqa0dnTBbfsLoQ9mA7w-2" value="首页" style="ellipse;whiteSpace=wrap;html=1;" parent="1" vertex="1">
                    <mxGeometry x="460" y="165" width="140" height="70" as="geometry"/>
                </mxCell>
                <mxCell id="aLqa0dnTBbfsLoQ9mA7w-3" value="注册" style="ellipse;whiteSpace=wrap;html=1;" parent="1" vertex="1">
                    <mxGeometry x="640" y="80" width="140" height="70" as="geometry"/>
                </mxCell>
                <mxCell id="aLqa0dnTBbfsLoQ9mA7w-4" value="登陆" style="ellipse;whiteSpace=wrap;html=1;" parent="1" vertex="1">
                    <mxGeometry x="650" y="240" width="140" height="70" as="geometry"/>
                </mxCell>
                <mxCell id="aLqa0dnTBbfsLoQ9mA7w-5" value="课程管理" style="ellipse;whiteSpace=wrap;html=1;" parent="1" vertex="1">
                    <mxGeometry x="480" y="350" width="140" height="70" as="geometry"/>
                </mxCell>
                <mxCell id="aLqa0dnTBbfsLoQ9mA7w-6" value="课程付款查看" style="ellipse;whiteSpace=wrap;html=1;" parent="1" vertex="1">
                    <mxGeometry x="285" y="350" width="140" height="70" as="geometry"/>
                </mxCell>
                <mxCell id="aLqa0dnTBbfsLoQ9mA7w-8" value="投诉管理" style="ellipse;whiteSpace=wrap;html=1;" parent="1" vertex="1">
                    <mxGeometry x="80" y="165" width="140" height="70" as="geometry"/>
                </mxCell>
                <mxCell id="aLqa0dnTBbfsLoQ9mA7w-9" value="个人信息管理" style="ellipse;whiteSpace=wrap;html=1;" parent="1" vertex="1">
                    <mxGeometry x="285" y="30" width="140" height="70" as="geometry"/>
                </mxCell>
                <mxCell id="aLqa0dnTBbfsLoQ9mA7w-10" value="" style="html=1;endArrow=none;elbow=vertical;rounded=0;" parent="1" source="aLqa0dnTBbfsLoQ9mA7w-9" target="aLqa0dnTBbfsLoQ9mA7w-1" edge="1">
                    <mxGeometry width="160" relative="1" as="geometry">
                        <mxPoint x="90" y="210" as="sourcePoint"/>
                        <mxPoint x="250" y="210" as="targetPoint"/>
                    </mxGeometry>
                </mxCell>
                <mxCell id="aLqa0dnTBbfsLoQ9mA7w-11" value="" style="html=1;endArrow=none;elbow=vertical;rounded=0;" parent="1" source="aLqa0dnTBbfsLoQ9mA7w-2" target="aLqa0dnTBbfsLoQ9mA7w-1" edge="1">
                    <mxGeometry width="160" relative="1" as="geometry">
                        <mxPoint x="251.85833356061494" y="158.5091112141455" as="sourcePoint"/>
                        <mxPoint x="350" y="203.18181818181813" as="targetPoint"/>
                    </mxGeometry>
                </mxCell>
                <mxCell id="aLqa0dnTBbfsLoQ9mA7w-12" value="" style="html=1;endArrow=none;elbow=vertical;rounded=0;" parent="1" source="aLqa0dnTBbfsLoQ9mA7w-5" target="aLqa0dnTBbfsLoQ9mA7w-1" edge="1">
                    <mxGeometry width="160" relative="1" as="geometry">
                        <mxPoint x="470" y="210" as="sourcePoint"/>
                        <mxPoint x="380" y="210" as="targetPoint"/>
                    </mxGeometry>
                </mxCell>
                <mxCell id="aLqa0dnTBbfsLoQ9mA7w-13" value="" style="html=1;endArrow=none;elbow=vertical;rounded=0;" parent="1" source="aLqa0dnTBbfsLoQ9mA7w-6" target="aLqa0dnTBbfsLoQ9mA7w-1" edge="1">
                    <mxGeometry width="160" relative="1" as="geometry">
                        <mxPoint x="480" y="220" as="sourcePoint"/>
                        <mxPoint x="390" y="220" as="targetPoint"/>
                    </mxGeometry>
                </mxCell>
                <mxCell id="aLqa0dnTBbfsLoQ9mA7w-14" value="" style="html=1;endArrow=none;elbow=vertical;rounded=0;" parent="1" source="aLqa0dnTBbfsLoQ9mA7w-8" target="aLqa0dnTBbfsLoQ9mA7w-1" edge="1">
                    <mxGeometry width="160" relative="1" as="geometry">
                        <mxPoint x="490" y="230" as="sourcePoint"/>
                        <mxPoint x="400" y="230" as="targetPoint"/>
                    </mxGeometry>
                </mxCell>
                <mxCell id="aLqa0dnTBbfsLoQ9mA7w-16" value="&amp;lt;&amp;lt;include&amp;gt;&amp;gt;" style="html=1;verticalAlign=bottom;labelBackgroundColor=none;endArrow=open;endFill=0;dashed=1;rounded=0;" parent="1" source="aLqa0dnTBbfsLoQ9mA7w-2" target="aLqa0dnTBbfsLoQ9mA7w-4" edge="1">
                    <mxGeometry width="160" relative="1" as="geometry">
                        <mxPoint x="591.2530716714125" y="186.16136201329664" as="sourcePoint"/>
                        <mxPoint x="669.1090793215178" y="149.03182365372766" as="targetPoint"/>
                    </mxGeometry>
                </mxCell>
                <mxCell id="AlOSwf3G9cJGjAiZTldt-1" value="出勤管理" style="ellipse;whiteSpace=wrap;html=1;" parent="1" vertex="1">
                    <mxGeometry x="100" y="350" width="140" height="70" as="geometry"/>
                </mxCell>
                <mxCell id="AlOSwf3G9cJGjAiZTldt-2" value="" style="html=1;endArrow=none;elbow=vertical;rounded=0;" parent="1" source="AlOSwf3G9cJGjAiZTldt-1" target="aLqa0dnTBbfsLoQ9mA7w-1" edge="1">
                    <mxGeometry width="160" relative="1" as="geometry">
                        <mxPoint x="230" y="210" as="sourcePoint"/>
                        <mxPoint x="350" y="210" as="targetPoint"/>
                    </mxGeometry>
                </mxCell>
                <mxCell id="MIr4PnFeeBtd_7RnRxZZ-1" value="出勤确认" style="ellipse;whiteSpace=wrap;html=1;" parent="1" vertex="1">
                    <mxGeometry y="480" width="140" height="70" as="geometry"/>
                </mxCell>
                <mxCell id="MIr4PnFeeBtd_7RnRxZZ-3" value="出勤查看" style="ellipse;whiteSpace=wrap;html=1;" parent="1" vertex="1">
                    <mxGeometry x="170" y="480" width="140" height="70" as="geometry"/>
                </mxCell>
                <mxCell id="MIr4PnFeeBtd_7RnRxZZ-4" value="&amp;lt;&amp;lt;include&amp;gt;&amp;gt;" style="html=1;verticalAlign=bottom;labelBackgroundColor=none;endArrow=open;endFill=0;dashed=1;rounded=0;" parent="1" source="AlOSwf3G9cJGjAiZTldt-1" target="MIr4PnFeeBtd_7RnRxZZ-1" edge="1">
                    <mxGeometry width="160" relative="1" as="geometry">
                        <mxPoint x="595.056432441623" y="231.6147475511557" as="sourcePoint"/>
                        <mxPoint x="675.0582064126579" y="263.31244989973345" as="targetPoint"/>
                    </mxGeometry>
                </mxCell>
                <mxCell id="MIr4PnFeeBtd_7RnRxZZ-5" value="&amp;lt;&amp;lt;include&amp;gt;&amp;gt;" style="html=1;verticalAlign=bottom;labelBackgroundColor=none;endArrow=open;endFill=0;dashed=1;rounded=0;" parent="1" source="AlOSwf3G9cJGjAiZTldt-1" target="MIr4PnFeeBtd_7RnRxZZ-3" edge="1">
                    <mxGeometry width="160" relative="1" as="geometry">
                        <mxPoint x="155.0522907227637" y="427.70172702556624" as="sourcePoint"/>
                        <mxPoint x="105.12853555162087" y="492.3329037828928" as="targetPoint"/>
                    </mxGeometry>
                </mxCell>
                <mxCell id="MIr4PnFeeBtd_7RnRxZZ-6" value="搜索" style="ellipse;whiteSpace=wrap;html=1;" parent="1" vertex="1">
                    <mxGeometry x="650" y="350" width="140" height="70" as="geometry"/>
                </mxCell>
                <mxCell id="MIr4PnFeeBtd_7RnRxZZ-7" value="买课" style="ellipse;whiteSpace=wrap;html=1;" parent="1" vertex="1">
                    <mxGeometry x="650" y="480" width="140" height="70" as="geometry"/>
                </mxCell>
                <mxCell id="MIr4PnFeeBtd_7RnRxZZ-8" value="退课" style="ellipse;whiteSpace=wrap;html=1;" parent="1" vertex="1">
                    <mxGeometry x="480" y="480" width="140" height="70" as="geometry"/>
                </mxCell>
                <mxCell id="MIr4PnFeeBtd_7RnRxZZ-13" value="&amp;lt;&amp;lt;include&amp;gt;&amp;gt;" style="html=1;verticalAlign=bottom;labelBackgroundColor=none;endArrow=open;endFill=0;dashed=1;rounded=0;" parent="1" source="aLqa0dnTBbfsLoQ9mA7w-5" target="MIr4PnFeeBtd_7RnRxZZ-8" edge="1">
                    <mxGeometry width="160" relative="1" as="geometry">
                        <mxPoint x="595.056432441623" y="231.6147475511557" as="sourcePoint"/>
                        <mxPoint x="675.0582064126579" y="263.31244989973345" as="targetPoint"/>
                    </mxGeometry>
                </mxCell>
                <mxCell id="MIr4PnFeeBtd_7RnRxZZ-14" value="&amp;lt;&amp;lt;include&amp;gt;&amp;gt;" style="html=1;verticalAlign=bottom;labelBackgroundColor=none;endArrow=open;endFill=0;dashed=1;rounded=0;" parent="1" source="aLqa0dnTBbfsLoQ9mA7w-5" target="MIr4PnFeeBtd_7RnRxZZ-7" edge="1">
                    <mxGeometry width="160" relative="1" as="geometry">
                        <mxPoint x="605.056432441623" y="241.6147475511557" as="sourcePoint"/>
                        <mxPoint x="685.0582064126579" y="273.31244989973345" as="targetPoint"/>
                    </mxGeometry>
                </mxCell>
                <mxCell id="MIr4PnFeeBtd_7RnRxZZ-15" value="&amp;lt;&amp;lt;include&amp;gt;&amp;gt;" style="html=1;verticalAlign=bottom;labelBackgroundColor=none;endArrow=open;endFill=0;dashed=1;rounded=0;" parent="1" source="aLqa0dnTBbfsLoQ9mA7w-5" target="MIr4PnFeeBtd_7RnRxZZ-6" edge="1">
                    <mxGeometry width="160" relative="1" as="geometry">
                        <mxPoint x="615.056432441623" y="251.6147475511557" as="sourcePoint"/>
                        <mxPoint x="695.0582064126579" y="283.31244989973345" as="targetPoint"/>
                    </mxGeometry>
                </mxCell>
                <mxCell id="MIr4PnFeeBtd_7RnRxZZ-16" value="&amp;lt;&amp;lt;include&amp;gt;&amp;gt;" style="html=1;verticalAlign=bottom;labelBackgroundColor=none;endArrow=open;endFill=0;dashed=1;rounded=0;" parent="1" source="aLqa0dnTBbfsLoQ9mA7w-2" target="aLqa0dnTBbfsLoQ9mA7w-3" edge="1">
                    <mxGeometry width="160" relative="1" as="geometry">
                        <mxPoint x="625.056432441623" y="261.6147475511557" as="sourcePoint"/>
                        <mxPoint x="705.0582064126579" y="293.31244989973345" as="targetPoint"/>
                    </mxGeometry>
                </mxCell>
            </root>
        </mxGraphModel>
    </diagram>
    <diagram id="3rJa9wlgh4FFQXkF47BI" name="教育机构系统">
        <mxGraphModel dx="957" dy="442" grid="1" gridSize="10" guides="1" tooltips="1" connect="1" arrows="1" fold="1" page="1" pageScale="1" pageWidth="850" pageHeight="1100" math="0" shadow="0">
            <root>
                <mxCell id="0"/>
                <mxCell id="1" parent="0"/>
                <mxCell id="T4zbCgkm167sj0FyqAFK-1" value="教育机构" style="shape=umlActor;verticalLabelPosition=bottom;verticalAlign=top;html=1;" parent="1" vertex="1">
                    <mxGeometry x="385" y="395" width="30" height="60" as="geometry"/>
                </mxCell>
                <mxCell id="T4zbCgkm167sj0FyqAFK-2" value="课程管理" style="ellipse;whiteSpace=wrap;html=1;" parent="1" vertex="1">
                    <mxGeometry x="530" y="390" width="140" height="70" as="geometry"/>
                </mxCell>
                <mxCell id="T4zbCgkm167sj0FyqAFK-3" value="班级学员查看" style="ellipse;whiteSpace=wrap;html=1;" parent="1" vertex="1">
                    <mxGeometry x="450" y="510" width="140" height="70" as="geometry"/>
                </mxCell>
                <mxCell id="T4zbCgkm167sj0FyqAFK-4" value="出勤查看" style="ellipse;whiteSpace=wrap;html=1;" parent="1" vertex="1">
                    <mxGeometry x="230" y="510" width="140" height="70" as="geometry"/>
                </mxCell>
                <mxCell id="T4zbCgkm167sj0FyqAFK-5" value="" style="html=1;endArrow=none;elbow=vertical;rounded=0;" parent="1" source="T4zbCgkm167sj0FyqAFK-4" target="T4zbCgkm167sj0FyqAFK-1" edge="1">
                    <mxGeometry width="160" relative="1" as="geometry">
                        <mxPoint x="25" y="315" as="sourcePoint"/>
                        <mxPoint x="275" y="365" as="targetPoint"/>
                    </mxGeometry>
                </mxCell>
                <mxCell id="T4zbCgkm167sj0FyqAFK-6" value="" style="html=1;endArrow=none;elbow=vertical;rounded=0;" parent="1" source="T4zbCgkm167sj0FyqAFK-3" target="T4zbCgkm167sj0FyqAFK-1" edge="1">
                    <mxGeometry width="160" relative="1" as="geometry">
                        <mxPoint x="283.70982538983344" y="530.8385982063254" as="sourcePoint"/>
                        <mxPoint x="395" y="446.3636363636364" as="targetPoint"/>
                    </mxGeometry>
                </mxCell>
                <mxCell id="T4zbCgkm167sj0FyqAFK-7" value="" style="html=1;endArrow=none;elbow=vertical;rounded=0;" parent="1" source="T4zbCgkm167sj0FyqAFK-2" target="T4zbCgkm167sj0FyqAFK-1" edge="1">
                    <mxGeometry width="160" relative="1" as="geometry">
                        <mxPoint x="491.12059780711843" y="547.09949031203" as="sourcePoint"/>
                        <mxPoint x="425" y="455.71428571428567" as="targetPoint"/>
                    </mxGeometry>
                </mxCell>
                <mxCell id="Wm_HGiqx1DU8ZWVwSIR--1" value="教师管理" style="ellipse;whiteSpace=wrap;html=1;" parent="1" vertex="1">
                    <mxGeometry x="470" y="260" width="140" height="70" as="geometry"/>
                </mxCell>
                <mxCell id="Wm_HGiqx1DU8ZWVwSIR--2" value="" style="html=1;endArrow=none;elbow=vertical;rounded=0;" parent="1" source="Wm_HGiqx1DU8ZWVwSIR--1" target="T4zbCgkm167sj0FyqAFK-1" edge="1">
                    <mxGeometry width="160" relative="1" as="geometry">
                        <mxPoint x="505" y="435" as="sourcePoint"/>
                        <mxPoint x="425" y="435" as="targetPoint"/>
                    </mxGeometry>
                </mxCell>
                <mxCell id="Wm_HGiqx1DU8ZWVwSIR--3" value="划拨查看" style="ellipse;whiteSpace=wrap;html=1;" parent="1" vertex="1">
                    <mxGeometry x="150" y="390" width="140" height="70" as="geometry"/>
                </mxCell>
                <mxCell id="Wm_HGiqx1DU8ZWVwSIR--4" value="首页" style="ellipse;whiteSpace=wrap;html=1;" parent="1" vertex="1">
                    <mxGeometry x="160" y="280" width="140" height="65" as="geometry"/>
                </mxCell>
                <mxCell id="Wm_HGiqx1DU8ZWVwSIR--5" value="登陆" style="ellipse;whiteSpace=wrap;html=1;" parent="1" vertex="1">
                    <mxGeometry x="50" y="195" width="140" height="65" as="geometry"/>
                </mxCell>
                <mxCell id="Wm_HGiqx1DU8ZWVwSIR--6" value="注册" style="ellipse;whiteSpace=wrap;html=1;" parent="1" vertex="1">
                    <mxGeometry x="150" y="100" width="140" height="65" as="geometry"/>
                </mxCell>
                <mxCell id="Wm_HGiqx1DU8ZWVwSIR--7" value="&amp;lt;&amp;lt;include&amp;gt;&amp;gt;" style="html=1;verticalAlign=bottom;labelBackgroundColor=none;endArrow=open;endFill=0;dashed=1;rounded=0;" parent="1" source="Wm_HGiqx1DU8ZWVwSIR--4" target="Wm_HGiqx1DU8ZWVwSIR--6" edge="1">
                    <mxGeometry width="160" relative="1" as="geometry">
                        <mxPoint x="290" y="210" as="sourcePoint"/>
                        <mxPoint x="450" y="210" as="targetPoint"/>
                    </mxGeometry>
                </mxCell>
                <mxCell id="Wm_HGiqx1DU8ZWVwSIR--8" value="&amp;lt;&amp;lt;include&amp;gt;&amp;gt;" style="html=1;verticalAlign=bottom;labelBackgroundColor=none;endArrow=open;endFill=0;dashed=1;rounded=0;" parent="1" source="Wm_HGiqx1DU8ZWVwSIR--4" target="Wm_HGiqx1DU8ZWVwSIR--5" edge="1">
                    <mxGeometry width="160" relative="1" as="geometry">
                        <mxPoint x="238.23185684821306" y="290.0103695859143" as="sourcePoint"/>
                        <mxPoint x="231.80495522578235" y="174.98919406408095" as="targetPoint"/>
                    </mxGeometry>
                </mxCell>
                <mxCell id="Wm_HGiqx1DU8ZWVwSIR--9" value="" style="html=1;endArrow=none;elbow=vertical;rounded=0;" parent="1" source="Wm_HGiqx1DU8ZWVwSIR--4" target="T4zbCgkm167sj0FyqAFK-1" edge="1">
                    <mxGeometry width="160" relative="1" as="geometry">
                        <mxPoint x="516.7971736030781" y="335.8122228963434" as="sourcePoint"/>
                        <mxPoint x="425" y="421.07142857142867" as="targetPoint"/>
                    </mxGeometry>
                </mxCell>
                <mxCell id="Wm_HGiqx1DU8ZWVwSIR--10" value="" style="html=1;endArrow=none;elbow=vertical;rounded=0;" parent="1" source="Wm_HGiqx1DU8ZWVwSIR--3" target="T4zbCgkm167sj0FyqAFK-1" edge="1">
                    <mxGeometry width="160" relative="1" as="geometry">
                        <mxPoint x="526.7971736030781" y="345.8122228963434" as="sourcePoint"/>
                        <mxPoint x="435" y="431.07142857142867" as="targetPoint"/>
                    </mxGeometry>
                </mxCell>
                <mxCell id="Wm_HGiqx1DU8ZWVwSIR--11" value="统计" style="ellipse;whiteSpace=wrap;html=1;" parent="1" vertex="1">
                    <mxGeometry x="330" y="170" width="140" height="70" as="geometry"/>
                </mxCell>
                <mxCell id="Wm_HGiqx1DU8ZWVwSIR--12" value="" style="html=1;endArrow=none;elbow=vertical;rounded=0;" parent="1" source="Wm_HGiqx1DU8ZWVwSIR--11" target="T4zbCgkm167sj0FyqAFK-1" edge="1">
                    <mxGeometry width="160" relative="1" as="geometry">
                        <mxPoint x="280.3544559617633" y="349.05583553612803" as="sourcePoint"/>
                        <mxPoint x="395" y="425.07352941176464" as="targetPoint"/>
                    </mxGeometry>
                </mxCell>
                <mxCell id="QlCn2pg0aVL52k4OrIC0-2" value="创建" style="ellipse;whiteSpace=wrap;html=1;" parent="1" vertex="1">
                    <mxGeometry x="700" y="290" width="140" height="70" as="geometry"/>
                </mxCell>
                <mxCell id="QlCn2pg0aVL52k4OrIC0-3" value="发布" style="ellipse;whiteSpace=wrap;html=1;" parent="1" vertex="1">
                    <mxGeometry x="700" y="390" width="140" height="70" as="geometry"/>
                </mxCell>
                <mxCell id="QlCn2pg0aVL52k4OrIC0-4" value="更改" style="ellipse;whiteSpace=wrap;html=1;" parent="1" vertex="1">
                    <mxGeometry x="700" y="490" width="140" height="70" as="geometry"/>
                </mxCell>
                <mxCell id="QlCn2pg0aVL52k4OrIC0-5" value="关闭" style="ellipse;whiteSpace=wrap;html=1;" parent="1" vertex="1">
                    <mxGeometry x="700" y="590" width="140" height="70" as="geometry"/>
                </mxCell>
                <mxCell id="QlCn2pg0aVL52k4OrIC0-6" value="&amp;lt;&amp;lt;include&amp;gt;&amp;gt;" style="html=1;verticalAlign=bottom;labelBackgroundColor=none;endArrow=open;endFill=0;dashed=1;rounded=0;" parent="1" source="T4zbCgkm167sj0FyqAFK-2" target="QlCn2pg0aVL52k4OrIC0-2" edge="1">
                    <mxGeometry width="160" relative="1" as="geometry">
                        <mxPoint x="238.23185684821306" y="290.0103695859143" as="sourcePoint"/>
                        <mxPoint x="231.80495522578235" y="174.98919406408095" as="targetPoint"/>
                    </mxGeometry>
                </mxCell>
                <mxCell id="QlCn2pg0aVL52k4OrIC0-7" value="&amp;lt;&amp;lt;include&amp;gt;&amp;gt;" style="html=1;verticalAlign=bottom;labelBackgroundColor=none;endArrow=open;endFill=0;dashed=1;rounded=0;" parent="1" source="T4zbCgkm167sj0FyqAFK-2" target="QlCn2pg0aVL52k4OrIC0-3" edge="1">
                    <mxGeometry width="160" relative="1" as="geometry">
                        <mxPoint x="655.3141703276845" y="408.3231094038633" as="sourcePoint"/>
                        <mxPoint x="734.6646105933157" y="361.66787612157896" as="targetPoint"/>
                    </mxGeometry>
                </mxCell>
                <mxCell id="QlCn2pg0aVL52k4OrIC0-8" value="&amp;lt;&amp;lt;include&amp;gt;&amp;gt;" style="html=1;verticalAlign=bottom;labelBackgroundColor=none;endArrow=open;endFill=0;dashed=1;rounded=0;" parent="1" source="T4zbCgkm167sj0FyqAFK-2" target="QlCn2pg0aVL52k4OrIC0-4" edge="1">
                    <mxGeometry width="160" relative="1" as="geometry">
                        <mxPoint x="665.3141703276845" y="418.3231094038633" as="sourcePoint"/>
                        <mxPoint x="744.6646105933157" y="371.66787612157896" as="targetPoint"/>
                    </mxGeometry>
                </mxCell>
                <mxCell id="QlCn2pg0aVL52k4OrIC0-9" value="&amp;lt;&amp;lt;include&amp;gt;&amp;gt;" style="html=1;verticalAlign=bottom;labelBackgroundColor=none;endArrow=open;endFill=0;dashed=1;rounded=0;" parent="1" source="T4zbCgkm167sj0FyqAFK-2" target="QlCn2pg0aVL52k4OrIC0-5" edge="1">
                    <mxGeometry width="160" relative="1" as="geometry">
                        <mxPoint x="675.3141703276845" y="428.3231094038633" as="sourcePoint"/>
                        <mxPoint x="754.6646105933157" y="381.66787612157896" as="targetPoint"/>
                    </mxGeometry>
                </mxCell>
            </root>
        </mxGraphModel>
    </diagram>
    <diagram id="oiyC1KVQFXe6dMLFgRK1" name="教育局监管系统">
        <mxGraphModel dx="957" dy="1542" grid="1" gridSize="10" guides="1" tooltips="1" connect="1" arrows="1" fold="1" page="1" pageScale="1" pageWidth="850" pageHeight="1100" math="0" shadow="0">
            <root>
                <mxCell id="0"/>
                <mxCell id="1" parent="0"/>
                <mxCell id="1D1AorFIlED847Cq9dBp-1" value="监管方" style="shape=umlActor;verticalLabelPosition=bottom;verticalAlign=top;html=1;" parent="1" vertex="1">
                    <mxGeometry x="410" y="388" width="30" height="60" as="geometry"/>
                </mxCell>
                <mxCell id="1D1AorFIlED847Cq9dBp-4" value="考勤管理" style="ellipse;whiteSpace=wrap;html=1;" parent="1" vertex="1">
                    <mxGeometry x="550" y="528" width="140" height="70" as="geometry"/>
                </mxCell>
                <mxCell id="1D1AorFIlED847Cq9dBp-5" value="资金管理" style="ellipse;whiteSpace=wrap;html=1;" parent="1" vertex="1">
                    <mxGeometry x="520" y="218" width="140" height="70" as="geometry"/>
                </mxCell>
                <mxCell id="1D1AorFIlED847Cq9dBp-6" value="投诉管理" style="ellipse;whiteSpace=wrap;html=1;" parent="1" vertex="1">
                    <mxGeometry x="170" y="470" width="140" height="70" as="geometry"/>
                </mxCell>
                <mxCell id="1D1AorFIlED847Cq9dBp-7" value="首页" style="ellipse;whiteSpace=wrap;html=1;" parent="1" vertex="1">
                    <mxGeometry x="190" y="318" width="140" height="70" as="geometry"/>
                </mxCell>
                <mxCell id="1D1AorFIlED847Cq9dBp-8" value="登陆" style="ellipse;whiteSpace=wrap;html=1;" parent="1" vertex="1">
                    <mxGeometry y="318" width="140" height="70" as="geometry"/>
                </mxCell>
                <mxCell id="1D1AorFIlED847Cq9dBp-9" value="监管方用户管理" style="ellipse;whiteSpace=wrap;html=1;" parent="1" vertex="1">
                    <mxGeometry x="10" y="148" width="140" height="70" as="geometry"/>
                </mxCell>
                <mxCell id="1D1AorFIlED847Cq9dBp-10" value="监管方基础信息维护" style="ellipse;whiteSpace=wrap;html=1;" parent="1" vertex="1">
                    <mxGeometry x="200" y="230" width="140" height="70" as="geometry"/>
                </mxCell>
                <mxCell id="1D1AorFIlED847Cq9dBp-11" value="教育机构管理" style="ellipse;whiteSpace=wrap;html=1;" parent="1" vertex="1">
                    <mxGeometry x="355" y="528" width="140" height="70" as="geometry"/>
                </mxCell>
                <mxCell id="1D1AorFIlED847Cq9dBp-12" value="&amp;lt;&amp;lt;include&amp;gt;&amp;gt;" style="html=1;verticalAlign=bottom;labelBackgroundColor=none;endArrow=open;endFill=0;dashed=1;rounded=0;" parent="1" source="1D1AorFIlED847Cq9dBp-7" target="1D1AorFIlED847Cq9dBp-8" edge="1">
                    <mxGeometry width="160" relative="1" as="geometry">
                        <mxPoint x="280" y="348" as="sourcePoint"/>
                        <mxPoint x="440" y="348" as="targetPoint"/>
                    </mxGeometry>
                </mxCell>
                <mxCell id="LFKi8_mNqphSKc9LSMnU-1" value="" style="html=1;endArrow=none;elbow=vertical;rounded=0;" parent="1" source="1D1AorFIlED847Cq9dBp-1" target="1D1AorFIlED847Cq9dBp-6" edge="1">
                    <mxGeometry width="160" relative="1" as="geometry">
                        <mxPoint x="142" y="449.395256916996" as="sourcePoint"/>
                        <mxPoint x="355.8404565929436" y="740.1506603477178" as="targetPoint"/>
                    </mxGeometry>
                </mxCell>
                <mxCell id="LFKi8_mNqphSKc9LSMnU-2" value="" style="html=1;endArrow=none;elbow=vertical;rounded=0;" parent="1" source="1D1AorFIlED847Cq9dBp-1" target="1D1AorFIlED847Cq9dBp-10" edge="1">
                    <mxGeometry width="160" relative="1" as="geometry">
                        <mxPoint x="420" y="438.1612903225806" as="sourcePoint"/>
                        <mxPoint x="321.56966077860125" y="504.83990721449595" as="targetPoint"/>
                    </mxGeometry>
                </mxCell>
                <mxCell id="LFKi8_mNqphSKc9LSMnU-3" value="" style="html=1;endArrow=none;elbow=vertical;rounded=0;" parent="1" source="1D1AorFIlED847Cq9dBp-1" target="1D1AorFIlED847Cq9dBp-7" edge="1">
                    <mxGeometry width="160" relative="1" as="geometry">
                        <mxPoint x="430" y="448.1612903225806" as="sourcePoint"/>
                        <mxPoint x="331.56966077860125" y="514.839907214496" as="targetPoint"/>
                    </mxGeometry>
                </mxCell>
                <mxCell id="LFKi8_mNqphSKc9LSMnU-4" value="" style="html=1;endArrow=none;elbow=vertical;rounded=0;" parent="1" source="1D1AorFIlED847Cq9dBp-1" target="1D1AorFIlED847Cq9dBp-11" edge="1">
                    <mxGeometry width="160" relative="1" as="geometry">
                        <mxPoint x="440" y="458.1612903225806" as="sourcePoint"/>
                        <mxPoint x="341.56966077860125" y="524.839907214496" as="targetPoint"/>
                    </mxGeometry>
                </mxCell>
                <mxCell id="LFKi8_mNqphSKc9LSMnU-7" value="" style="html=1;endArrow=none;elbow=vertical;rounded=0;" parent="1" source="1D1AorFIlED847Cq9dBp-1" target="1D1AorFIlED847Cq9dBp-5" edge="1">
                    <mxGeometry width="160" relative="1" as="geometry">
                        <mxPoint x="470" y="488.1612903225806" as="sourcePoint"/>
                        <mxPoint x="371.56966077860125" y="554.839907214496" as="targetPoint"/>
                    </mxGeometry>
                </mxCell>
                <mxCell id="LFKi8_mNqphSKc9LSMnU-9" value="课程管理" style="ellipse;whiteSpace=wrap;html=1;" parent="1" vertex="1">
                    <mxGeometry x="260" y="638" width="140" height="70" as="geometry"/>
                </mxCell>
                <mxCell id="LFKi8_mNqphSKc9LSMnU-10" value="政策发布" style="ellipse;whiteSpace=wrap;html=1;" parent="1" vertex="1">
                    <mxGeometry x="450" y="638" width="140" height="70" as="geometry"/>
                </mxCell>
                <mxCell id="LFKi8_mNqphSKc9LSMnU-11" value="&amp;lt;&amp;lt;include&amp;gt;&amp;gt;" style="html=1;verticalAlign=bottom;labelBackgroundColor=none;endArrow=open;endFill=0;dashed=1;rounded=0;" parent="1" source="1D1AorFIlED847Cq9dBp-11" target="LFKi8_mNqphSKc9LSMnU-10" edge="1">
                    <mxGeometry width="160" relative="1" as="geometry">
                        <mxPoint x="227.53761634284274" y="396.99115590958104" as="sourcePoint"/>
                        <mxPoint x="192.60225029828348" y="363.97213778336936" as="targetPoint"/>
                    </mxGeometry>
                </mxCell>
                <mxCell id="LFKi8_mNqphSKc9LSMnU-12" value="&amp;lt;&amp;lt;include&amp;gt;&amp;gt;" style="html=1;verticalAlign=bottom;labelBackgroundColor=none;endArrow=open;endFill=0;dashed=1;rounded=0;" parent="1" source="1D1AorFIlED847Cq9dBp-11" target="LFKi8_mNqphSKc9LSMnU-9" edge="1">
                    <mxGeometry width="160" relative="1" as="geometry">
                        <mxPoint x="237.53761634284274" y="406.99115590958104" as="sourcePoint"/>
                        <mxPoint x="202.60225029828348" y="373.97213778336936" as="targetPoint"/>
                    </mxGeometry>
                </mxCell>
                <mxCell id="dxAcKyBpB_BAoJwuuwmL-4" value="自动执行策略配置" style="ellipse;whiteSpace=wrap;html=1;" parent="1" vertex="1">
                    <mxGeometry x="680" y="100" width="140" height="70" as="geometry"/>
                </mxCell>
                <mxCell id="dxAcKyBpB_BAoJwuuwmL-5" value="手工执行划拨" style="ellipse;whiteSpace=wrap;html=1;" parent="1" vertex="1">
                    <mxGeometry x="710" y="218" width="140" height="70" as="geometry"/>
                </mxCell>
                <mxCell id="dxAcKyBpB_BAoJwuuwmL-6" value="&amp;lt;&amp;lt;include&amp;gt;&amp;gt;" style="html=1;verticalAlign=bottom;labelBackgroundColor=none;endArrow=open;endFill=0;dashed=1;rounded=0;" parent="1" source="1D1AorFIlED847Cq9dBp-5" target="dxAcKyBpB_BAoJwuuwmL-4" edge="1">
                    <mxGeometry width="160" relative="1" as="geometry">
                        <mxPoint x="227.53761634284274" y="396.99115590958104" as="sourcePoint"/>
                        <mxPoint x="192.60225029828348" y="363.97213778336936" as="targetPoint"/>
                    </mxGeometry>
                </mxCell>
                <mxCell id="dxAcKyBpB_BAoJwuuwmL-7" value="&amp;lt;&amp;lt;include&amp;gt;&amp;gt;" style="html=1;verticalAlign=bottom;labelBackgroundColor=none;endArrow=open;endFill=0;dashed=1;rounded=0;" parent="1" source="1D1AorFIlED847Cq9dBp-5" target="dxAcKyBpB_BAoJwuuwmL-5" edge="1">
                    <mxGeometry width="160" relative="1" as="geometry">
                        <mxPoint x="663.3102114758028" y="248.06834635004657" as="sourcePoint"/>
                        <mxPoint x="706.6626908459302" y="237.90289627154584" as="targetPoint"/>
                    </mxGeometry>
                </mxCell>
                <mxCell id="dxAcKyBpB_BAoJwuuwmL-8" value="手工执行退款" style="ellipse;whiteSpace=wrap;html=1;" parent="1" vertex="1">
                    <mxGeometry x="680" y="330" width="140" height="70" as="geometry"/>
                </mxCell>
                <mxCell id="dxAcKyBpB_BAoJwuuwmL-9" value="&amp;lt;&amp;lt;include&amp;gt;&amp;gt;" style="html=1;verticalAlign=bottom;labelBackgroundColor=none;endArrow=open;endFill=0;dashed=1;rounded=0;" parent="1" source="1D1AorFIlED847Cq9dBp-5" target="dxAcKyBpB_BAoJwuuwmL-8" edge="1">
                    <mxGeometry width="160" relative="1" as="geometry">
                        <mxPoint x="657.4424490958345" y="283.00228138158525" as="sourcePoint"/>
                        <mxPoint x="712.8122495714699" y="302.81608808404826" as="targetPoint"/>
                    </mxGeometry>
                </mxCell>
                <mxCell id="afJ1MQr858nbfG4_UrPG-1" value="统计分析" style="ellipse;whiteSpace=wrap;html=1;" parent="1" vertex="1">
                    <mxGeometry x="355" y="70" width="140" height="70" as="geometry"/>
                </mxCell>
                <mxCell id="afJ1MQr858nbfG4_UrPG-2" value="监管方机构管理" style="ellipse;whiteSpace=wrap;html=1;" parent="1" vertex="1">
                    <mxGeometry x="80" y="60" width="140" height="70" as="geometry"/>
                </mxCell>
                <mxCell id="afJ1MQr858nbfG4_UrPG-3" value="&amp;lt;&amp;lt;include&amp;gt;&amp;gt;" style="html=1;verticalAlign=bottom;labelBackgroundColor=none;endArrow=open;endFill=0;dashed=1;rounded=0;" parent="1" source="1D1AorFIlED847Cq9dBp-10" target="afJ1MQr858nbfG4_UrPG-2" edge="1">
                    <mxGeometry width="160" relative="1" as="geometry">
                        <mxPoint x="639.1294913144834" y="233.9789606084248" as="sourcePoint"/>
                        <mxPoint x="720.7189187292654" y="173.9697974371668" as="targetPoint"/>
                    </mxGeometry>
                </mxCell>
                <mxCell id="afJ1MQr858nbfG4_UrPG-4" value="&amp;lt;&amp;lt;include&amp;gt;&amp;gt;" style="html=1;verticalAlign=bottom;labelBackgroundColor=none;endArrow=open;endFill=0;dashed=1;rounded=0;" parent="1" source="1D1AorFIlED847Cq9dBp-10" target="1D1AorFIlED847Cq9dBp-9" edge="1">
                    <mxGeometry width="160" relative="1" as="geometry">
                        <mxPoint x="388.93316775603444" y="236.647357973976" as="sourcePoint"/>
                        <mxPoint x="205.95319197958406" y="131.4021975737246" as="targetPoint"/>
                    </mxGeometry>
                </mxCell>
                <mxCell id="afJ1MQr858nbfG4_UrPG-5" value="" style="html=1;endArrow=none;elbow=vertical;rounded=0;" parent="1" source="1D1AorFIlED847Cq9dBp-1" target="afJ1MQr858nbfG4_UrPG-1" edge="1">
                    <mxGeometry width="160" relative="1" as="geometry">
                        <mxPoint x="420" y="411.6071428571429" as="sourcePoint"/>
                        <mxPoint x="324.1228461424744" y="306.82711042713277" as="targetPoint"/>
                    </mxGeometry>
                </mxCell>
                <mxCell id="QdRUauAZi2fwQK3NBY0_-1" value="教师管理" style="ellipse;whiteSpace=wrap;html=1;" parent="1" vertex="1">
                    <mxGeometry x="100" y="598" width="140" height="70" as="geometry"/>
                </mxCell>
                <mxCell id="QdRUauAZi2fwQK3NBY0_-2" value="&amp;lt;&amp;lt;include&amp;gt;&amp;gt;" style="html=1;verticalAlign=bottom;labelBackgroundColor=none;endArrow=open;endFill=0;dashed=1;rounded=0;" parent="1" source="1D1AorFIlED847Cq9dBp-11" target="QdRUauAZi2fwQK3NBY0_-1" edge="1">
                    <mxGeometry width="160" relative="1" as="geometry">
                        <mxPoint x="407.07393203269135" y="605.0941378131754" as="sourcePoint"/>
                        <mxPoint x="367.7505211409764" y="650.8678176262379" as="targetPoint"/>
                    </mxGeometry>
                </mxCell>
                <mxCell id="QdRUauAZi2fwQK3NBY0_-7" value="机构数量统计" style="ellipse;whiteSpace=wrap;html=1;" parent="1" vertex="1">
                    <mxGeometry x="180" y="-20" width="140" height="70" as="geometry"/>
                </mxCell>
                <mxCell id="QdRUauAZi2fwQK3NBY0_-8" value="学科分布" style="ellipse;whiteSpace=wrap;html=1;" parent="1" vertex="1">
                    <mxGeometry x="560" y="30" width="140" height="70" as="geometry"/>
                </mxCell>
                <mxCell id="QdRUauAZi2fwQK3NBY0_-9" value="学校分布" style="ellipse;whiteSpace=wrap;html=1;" parent="1" vertex="1">
                    <mxGeometry x="230" y="-100" width="140" height="70" as="geometry"/>
                </mxCell>
                <mxCell id="QdRUauAZi2fwQK3NBY0_-10" value="机构收入统计" style="ellipse;whiteSpace=wrap;html=1;" parent="1" vertex="1">
                    <mxGeometry x="400" y="-110" width="140" height="70" as="geometry"/>
                </mxCell>
                <mxCell id="QdRUauAZi2fwQK3NBY0_-11" value="机构投诉情况统计" style="ellipse;whiteSpace=wrap;html=1;" parent="1" vertex="1">
                    <mxGeometry x="530" y="-60" width="140" height="70" as="geometry"/>
                </mxCell>
                <mxCell id="QdRUauAZi2fwQK3NBY0_-12" value="&amp;lt;&amp;lt;include&amp;gt;&amp;gt;" style="html=1;verticalAlign=bottom;labelBackgroundColor=none;endArrow=open;endFill=0;dashed=1;rounded=0;" parent="1" source="afJ1MQr858nbfG4_UrPG-1" target="QdRUauAZi2fwQK3NBY0_-8" edge="1">
                    <mxGeometry width="160" relative="1" as="geometry">
                        <mxPoint x="639.129491314483" y="233.9789606084255" as="sourcePoint"/>
                        <mxPoint x="720.7189187292652" y="173.96979743716702" as="targetPoint"/>
                    </mxGeometry>
                </mxCell>
                <mxCell id="QdRUauAZi2fwQK3NBY0_-13" value="&amp;lt;&amp;lt;include&amp;gt;&amp;gt;" style="html=1;verticalAlign=bottom;labelBackgroundColor=none;endArrow=open;endFill=0;dashed=1;rounded=0;" parent="1" source="afJ1MQr858nbfG4_UrPG-1" target="QdRUauAZi2fwQK3NBY0_-7" edge="1">
                    <mxGeometry width="160" relative="1" as="geometry">
                        <mxPoint x="500.24913253231034" y="102.32570806926356" as="sourcePoint"/>
                        <mxPoint x="574.7895666360469" y="87.7239869978448" as="targetPoint"/>
                    </mxGeometry>
                </mxCell>
                <mxCell id="QdRUauAZi2fwQK3NBY0_-14" value="&amp;lt;&amp;lt;include&amp;gt;&amp;gt;" style="html=1;verticalAlign=bottom;labelBackgroundColor=none;endArrow=open;endFill=0;dashed=1;rounded=0;" parent="1" source="afJ1MQr858nbfG4_UrPG-1" target="QdRUauAZi2fwQK3NBY0_-9" edge="1">
                    <mxGeometry width="160" relative="1" as="geometry">
                        <mxPoint x="510.24913253231034" y="112.32570806926356" as="sourcePoint"/>
                        <mxPoint x="584.7895666360469" y="97.7239869978448" as="targetPoint"/>
                    </mxGeometry>
                </mxCell>
                <mxCell id="QdRUauAZi2fwQK3NBY0_-15" value="&amp;lt;&amp;lt;include&amp;gt;&amp;gt;" style="html=1;verticalAlign=bottom;labelBackgroundColor=none;endArrow=open;endFill=0;dashed=1;rounded=0;" parent="1" source="afJ1MQr858nbfG4_UrPG-1" target="QdRUauAZi2fwQK3NBY0_-10" edge="1">
                    <mxGeometry width="160" relative="1" as="geometry">
                        <mxPoint x="520.2491325323103" y="122.32570806926356" as="sourcePoint"/>
                        <mxPoint x="594.7895666360469" y="107.7239869978448" as="targetPoint"/>
                    </mxGeometry>
                </mxCell>
                <mxCell id="QdRUauAZi2fwQK3NBY0_-16" value="&amp;lt;&amp;lt;include&amp;gt;&amp;gt;" style="html=1;verticalAlign=bottom;labelBackgroundColor=none;endArrow=open;endFill=0;dashed=1;rounded=0;" parent="1" source="afJ1MQr858nbfG4_UrPG-1" target="QdRUauAZi2fwQK3NBY0_-11" edge="1">
                    <mxGeometry width="160" relative="1" as="geometry">
                        <mxPoint x="530.2491325323103" y="132.32570806926356" as="sourcePoint"/>
                        <mxPoint x="604.7895666360469" y="117.7239869978448" as="targetPoint"/>
                    </mxGeometry>
                </mxCell>
                <mxCell id="QdRUauAZi2fwQK3NBY0_-17" value="黑名单管理" style="ellipse;whiteSpace=wrap;html=1;" parent="1" vertex="1">
                    <mxGeometry x="355" y="730" width="140" height="70" as="geometry"/>
                </mxCell>
                <mxCell id="QdRUauAZi2fwQK3NBY0_-18" value="&amp;lt;&amp;lt;include&amp;gt;&amp;gt;" style="html=1;verticalAlign=bottom;labelBackgroundColor=none;endArrow=open;endFill=0;dashed=1;rounded=0;" parent="1" source="1D1AorFIlED847Cq9dBp-11" target="QdRUauAZi2fwQK3NBY0_-17" edge="1">
                    <mxGeometry width="160" relative="1" as="geometry">
                        <mxPoint x="407.07393203270567" y="605.0941378131597" as="sourcePoint"/>
                        <mxPoint x="367.7505211410139" y="650.8678176261951" as="targetPoint"/>
                    </mxGeometry>
                </mxCell>
                <mxCell id="QdRUauAZi2fwQK3NBY0_-19" value="机构审批" style="ellipse;whiteSpace=wrap;html=1;" parent="1" vertex="1">
                    <mxGeometry x="60" y="690" width="140" height="70" as="geometry"/>
                </mxCell>
                <mxCell id="QdRUauAZi2fwQK3NBY0_-20" value="&amp;lt;&amp;lt;include&amp;gt;&amp;gt;" style="html=1;verticalAlign=bottom;labelBackgroundColor=none;endArrow=open;endFill=0;dashed=1;rounded=0;" parent="1" source="1D1AorFIlED847Cq9dBp-11" target="QdRUauAZi2fwQK3NBY0_-19" edge="1">
                    <mxGeometry width="160" relative="1" as="geometry">
                        <mxPoint x="373.64476144169066" y="589.8488478942509" as="sourcePoint"/>
                        <mxPoint x="241.36049855456577" y="626.1559415732563" as="targetPoint"/>
                    </mxGeometry>
                </mxCell>
                <mxCell id="d1_z1qZtle8MDe4BSAcz-2" value="合同管理" style="ellipse;whiteSpace=wrap;html=1;" parent="1" vertex="1">
                    <mxGeometry x="550" y="420" width="140" height="70" as="geometry"/>
                </mxCell>
                <mxCell id="d1_z1qZtle8MDe4BSAcz-3" value="" style="html=1;endArrow=none;elbow=vertical;rounded=0;" parent="1" source="1D1AorFIlED847Cq9dBp-1" target="d1_z1qZtle8MDe4BSAcz-2" edge="1">
                    <mxGeometry width="160" relative="1" as="geometry">
                        <mxPoint x="450" y="413" as="sourcePoint"/>
                        <mxPoint x="568.6950483150029" y="294.30495168499715" as="targetPoint"/>
                    </mxGeometry>
                </mxCell>
                <mxCell id="d1_z1qZtle8MDe4BSAcz-4" value="" style="html=1;endArrow=none;elbow=vertical;rounded=0;" parent="1" source="1D1AorFIlED847Cq9dBp-1" target="1D1AorFIlED847Cq9dBp-4" edge="1">
                    <mxGeometry width="160" relative="1" as="geometry">
                        <mxPoint x="450" y="430.8461538461538" as="sourcePoint"/>
                        <mxPoint x="564.5540115956599" y="452.58204322584334" as="targetPoint"/>
                    </mxGeometry>
                </mxCell>
            </root>
        </mxGraphModel>
    </diagram>
    <diagram id="rrlFX7-aiRmQw6V9lKiQ" name="买课流程（签订电子合同）">
        <mxGraphModel dx="957" dy="1563" grid="1" gridSize="10" guides="1" tooltips="1" connect="1" arrows="1" fold="1" page="1" pageScale="1" pageWidth="850" pageHeight="1100" math="0" shadow="0">
            <root>
                <mxCell id="0"/>
                <mxCell id="1" parent="0"/>
                <mxCell id="TycX2JmiqUBi6t-DRexB-2" value="" style="swimlane;html=1;startSize=20;fontStyle=0;collapsible=0;horizontal=1;swimlaneLine=1;strokeWidth=2;swimlaneFillColor=#ffffff;movable=1;resizable=1;rotatable=1;deletable=1;editable=1;connectable=1;" parent="1" vertex="1">
                    <mxGeometry x="70" y="60" width="220" height="970" as="geometry"/>
                </mxCell>
                <mxCell id="TycX2JmiqUBi6t-DRexB-3" value="消费者" style="swimlane;html=1;startSize=20;fontStyle=0;collapsible=0;horizontal=1;swimlaneLine=1;strokeWidth=2;swimlaneFillColor=#ffffff;movable=0;resizable=0;rotatable=0;deletable=0;editable=0;connectable=0;" parent="TycX2JmiqUBi6t-DRexB-2" vertex="1">
                    <mxGeometry width="220" height="970" as="geometry"/>
                </mxCell>
                <mxCell id="TycX2JmiqUBi6t-DRexB-31" style="edgeStyle=orthogonalEdgeStyle;rounded=0;orthogonalLoop=1;jettySize=auto;html=1;" parent="TycX2JmiqUBi6t-DRexB-3" source="TycX2JmiqUBi6t-DRexB-28" target="TycX2JmiqUBi6t-DRexB-30" edge="1">
                    <mxGeometry relative="1" as="geometry"/>
                </mxCell>
                <mxCell id="TycX2JmiqUBi6t-DRexB-28" value="购买课程" style="points=[[0.25,0,0],[0.5,0,0],[0.75,0,0],[1,0.25,0],[1,0.5,0],[1,0.75,0],[0.75,1,0],[0.5,1,0],[0.25,1,0],[0,0.75,0],[0,0.5,0],[0,0.25,0]];shape=mxgraph.bpmn.task;whiteSpace=wrap;rectStyle=rounded;size=10;taskMarker=abstract;" parent="TycX2JmiqUBi6t-DRexB-3" vertex="1">
                    <mxGeometry x="35" y="580" width="120" height="80" as="geometry"/>
                </mxCell>
                <mxCell id="TycX2JmiqUBi6t-DRexB-33" style="edgeStyle=orthogonalEdgeStyle;rounded=0;orthogonalLoop=1;jettySize=auto;html=1;" parent="TycX2JmiqUBi6t-DRexB-3" source="TycX2JmiqUBi6t-DRexB-30" target="TycX2JmiqUBi6t-DRexB-32" edge="1">
                    <mxGeometry relative="1" as="geometry"/>
                </mxCell>
                <mxCell id="TycX2JmiqUBi6t-DRexB-30" value="支付" style="points=[[0.25,0,0],[0.5,0,0],[0.75,0,0],[1,0.25,0],[1,0.5,0],[1,0.75,0],[0.75,1,0],[0.5,1,0],[0.25,1,0],[0,0.75,0],[0,0.5,0],[0,0.25,0]];shape=mxgraph.bpmn.task;whiteSpace=wrap;rectStyle=rounded;size=10;taskMarker=abstract;" parent="TycX2JmiqUBi6t-DRexB-3" vertex="1">
                    <mxGeometry x="35" y="740" width="120" height="80" as="geometry"/>
                </mxCell>
                <mxCell id="TycX2JmiqUBi6t-DRexB-32" value="" style="points=[[0.145,0.145,0],[0.5,0,0],[0.855,0.145,0],[1,0.5,0],[0.855,0.855,0],[0.5,1,0],[0.145,0.855,0],[0,0.5,0]];shape=mxgraph.bpmn.event;html=1;verticalLabelPosition=bottom;labelBackgroundColor=#ffffff;verticalAlign=top;align=center;perimeter=ellipsePerimeter;outlineConnect=0;aspect=fixed;outline=end;symbol=terminate;" parent="TycX2JmiqUBi6t-DRexB-3" vertex="1">
                    <mxGeometry x="70" y="890" width="50" height="50" as="geometry"/>
                </mxCell>
                <mxCell id="TycX2JmiqUBi6t-DRexB-4" value="教育机构" style="swimlane;html=1;startSize=20;fontStyle=0;collapsible=0;horizontal=1;swimlaneLine=1;strokeWidth=2;swimlaneFillColor=#ffffff;movable=0;resizable=0;rotatable=0;deletable=0;editable=0;connectable=0;" parent="1" vertex="1">
                    <mxGeometry x="290" y="60" width="220" height="970" as="geometry"/>
                </mxCell>
                <mxCell id="TycX2JmiqUBi6t-DRexB-6" value="" style="points=[[0.145,0.145,0],[0.5,0,0],[0.855,0.145,0],[1,0.5,0],[0.855,0.855,0],[0.5,1,0],[0.145,0.855,0],[0,0.5,0]];shape=mxgraph.bpmn.event;html=1;verticalLabelPosition=bottom;labelBackgroundColor=#ffffff;verticalAlign=top;align=center;perimeter=ellipsePerimeter;outlineConnect=0;aspect=fixed;outline=standard;symbol=general;" parent="TycX2JmiqUBi6t-DRexB-4" vertex="1">
                    <mxGeometry x="80" y="40" width="50" height="50" as="geometry"/>
                </mxCell>
                <mxCell id="TycX2JmiqUBi6t-DRexB-12" value="创建/修改课程" style="points=[[0.25,0,0],[0.5,0,0],[0.75,0,0],[1,0.25,0],[1,0.5,0],[1,0.75,0],[0.75,1,0],[0.5,1,0],[0.25,1,0],[0,0.75,0],[0,0.5,0],[0,0.25,0]];shape=mxgraph.bpmn.task;whiteSpace=wrap;rectStyle=rounded;size=10;taskMarker=send;" parent="TycX2JmiqUBi6t-DRexB-4" vertex="1">
                    <mxGeometry x="45" y="160" width="120" height="80" as="geometry"/>
                </mxCell>
                <mxCell id="TycX2JmiqUBi6t-DRexB-8" value="" style="edgeStyle=orthogonalEdgeStyle;rounded=0;orthogonalLoop=1;jettySize=auto;html=1;" parent="TycX2JmiqUBi6t-DRexB-4" source="TycX2JmiqUBi6t-DRexB-6" target="TycX2JmiqUBi6t-DRexB-12" edge="1">
                    <mxGeometry relative="1" as="geometry">
                        <mxPoint x="105" y="165" as="targetPoint"/>
                    </mxGeometry>
                </mxCell>
                <mxCell id="TycX2JmiqUBi6t-DRexB-5" value="监管机构" style="swimlane;html=1;startSize=20;fontStyle=0;collapsible=0;horizontal=1;swimlaneLine=1;strokeWidth=2;swimlaneFillColor=#ffffff;movable=0;resizable=0;rotatable=0;deletable=0;editable=0;connectable=0;" parent="1" vertex="1">
                    <mxGeometry x="510" y="60" width="220" height="970" as="geometry"/>
                </mxCell>
                <mxCell id="TycX2JmiqUBi6t-DRexB-25" value="通过" style="edgeStyle=orthogonalEdgeStyle;rounded=0;orthogonalLoop=1;jettySize=auto;html=1;" parent="TycX2JmiqUBi6t-DRexB-5" source="TycX2JmiqUBi6t-DRexB-21" target="TycX2JmiqUBi6t-DRexB-24" edge="1">
                    <mxGeometry relative="1" as="geometry"/>
                </mxCell>
                <mxCell id="TycX2JmiqUBi6t-DRexB-21" value="审核" style="rhombus;whiteSpace=wrap;html=1;" parent="TycX2JmiqUBi6t-DRexB-5" vertex="1">
                    <mxGeometry x="70" y="290" width="80" height="80" as="geometry"/>
                </mxCell>
                <mxCell id="TycX2JmiqUBi6t-DRexB-24" value="课程上架" style="points=[[0.25,0,0],[0.5,0,0],[0.75,0,0],[1,0.25,0],[1,0.5,0],[1,0.75,0],[0.75,1,0],[0.5,1,0],[0.25,1,0],[0,0.75,0],[0,0.5,0],[0,0.25,0]];shape=mxgraph.bpmn.task;whiteSpace=wrap;rectStyle=rounded;size=10;taskMarker=send;" parent="TycX2JmiqUBi6t-DRexB-5" vertex="1">
                    <mxGeometry x="50" y="440" width="120" height="80" as="geometry"/>
                </mxCell>
                <mxCell id="TycX2JmiqUBi6t-DRexB-22" style="edgeStyle=orthogonalEdgeStyle;rounded=0;orthogonalLoop=1;jettySize=auto;html=1;" parent="1" source="TycX2JmiqUBi6t-DRexB-21" target="TycX2JmiqUBi6t-DRexB-12" edge="1">
                    <mxGeometry relative="1" as="geometry">
                        <Array as="points">
                            <mxPoint x="680" y="390"/>
                            <mxPoint x="680" y="200"/>
                            <mxPoint x="395" y="200"/>
                        </Array>
                    </mxGeometry>
                </mxCell>
                <mxCell id="TycX2JmiqUBi6t-DRexB-23" value="不通过" style="edgeLabel;html=1;align=center;verticalAlign=middle;resizable=0;points=[];" parent="TycX2JmiqUBi6t-DRexB-22" vertex="1" connectable="0">
                    <mxGeometry x="-0.6249" y="4" relative="1" as="geometry">
                        <mxPoint as="offset"/>
                    </mxGeometry>
                </mxCell>
                <mxCell id="TycX2JmiqUBi6t-DRexB-16" style="edgeStyle=orthogonalEdgeStyle;rounded=0;orthogonalLoop=1;jettySize=auto;html=1;" parent="1" source="TycX2JmiqUBi6t-DRexB-12" target="TycX2JmiqUBi6t-DRexB-21" edge="1">
                    <mxGeometry relative="1" as="geometry">
                        <mxPoint x="620" y="285" as="sourcePoint"/>
                        <mxPoint x="620" y="350" as="targetPoint"/>
                    </mxGeometry>
                </mxCell>
                <mxCell id="TycX2JmiqUBi6t-DRexB-29" style="edgeStyle=orthogonalEdgeStyle;rounded=0;orthogonalLoop=1;jettySize=auto;html=1;" parent="1" source="TycX2JmiqUBi6t-DRexB-24" target="TycX2JmiqUBi6t-DRexB-28" edge="1">
                    <mxGeometry relative="1" as="geometry">
                        <mxPoint x="165" y="565" as="sourcePoint"/>
                    </mxGeometry>
                </mxCell>
            </root>
        </mxGraphModel>
    </diagram>
</mxfile>